<svg xmlns="http://www.w3.org/2000/svg" xmlns:xlink="http://www.w3.org/1999/xlink" viewBox="0 0 1080 1080"><defs><style>.cls-1{isolation:isolate;}.cls-2,.cls-6{fill:none;}.cls-3,.cls-4,.cls-5,.cls-6{mix-blend-mode:screen;}.cls-3{opacity:0.15;fill:url(#radial-gradient);}.cls-4{opacity:0.5;fill:url(#radial-gradient-2);}.cls-5{fill:url(#radial-gradient-3);}.cls-6{stroke:#fff;stroke-miterlimit:10;stroke-width:2px;opacity:0.03;}</style><radialGradient id="radial-gradient" cx="552.33" cy="540" r="536.9" gradientUnits="userSpaceOnUse"><stop offset="0" stop-color="#210000"/><stop offset="0.73" stop-color="#854229"/><stop offset="1" stop-color="#210000"/></radialGradient><radialGradient id="radial-gradient-2" cx="552.33" cy="540" r="268.45" gradientUnits="userSpaceOnUse"><stop offset="0.15" stop-color="#fff"/><stop offset="0.21" stop-color="#e1d4d4"/><stop offset="0.29" stop-color="#bb9d9e"/><stop offset="0.36" stop-color="#a07577"/><stop offset="0.42" stop-color="#8f5d5f"/><stop offset="0.45" stop-color="#895456"/><stop offset="0.54" stop-color="#6a3b3c"/><stop offset="0.68" stop-color="#421b1c"/><stop offset="0.78" stop-color="#2a0707"/><stop offset="0.85" stop-color="#210000"/><stop offset="0.86" stop-color="#250201"/><stop offset="0.87" stop-color="#320905"/><stop offset="0.87" stop-color="#46140c"/><stop offset="0.88" stop-color="#632315"/><stop offset="0.89" stop-color="#893620"/><stop offset="0.9" stop-color="#b64e2e"/><stop offset="0.9" stop-color="#b84f2f"/><stop offset="0.91" stop-color="#9b4026"/><stop offset="0.92" stop-color="#762c1a"/><stop offset="0.93" stop-color="#571c11"/><stop offset="0.95" stop-color="#3f1009"/><stop offset="0.96" stop-color="#2e0704"/><stop offset="0.98" stop-color="#240201"/><stop offset="1" stop-color="#210000"/></radialGradient><radialGradient id="radial-gradient-3" cx="552.33" cy="540" r="223.71" gradientUnits="userSpaceOnUse"><stop offset="0.15" stop-color="#fff"/><stop offset="0.28" stop-color="#c2c2c2"/><stop offset="0.43" stop-color="#888"/><stop offset="0.56" stop-color="#575757"/><stop offset="0.69" stop-color="#313131"/><stop offset="0.81" stop-color="#161616"/><stop offset="0.92" stop-color="#060606"/><stop offset="1"/></radialGradient></defs><g class="cls-1"><g id="Lager_1" data-name="Lager 1"><line class="cls-2" x1="552.33" y1="540" x2="717.78" y2="751.4"/><circle class="cls-2" cx="552.33" cy="540" r="223.71"/><circle class="cls-2" cx="552.33" cy="540" r="268.45"/><polyline class="cls-2" points="552.33 540 293.31 834.64 552.33 540 811.35 245.36 552.33 540 257.69 280.98 552.33 540 846.97 799.02 552.33 540 454.6 939.83 552.33 540 650.07 140.17 552.33 540 152.51 442.26 552.33 540 952.16 637.74 552.33 540 530.46 924.8 552.33 540 574.2 155.2 552.33 540 167.53 518.13 552.33 540 937.13 561.87 552.33 540 250.45 1479.84 552.33 540 854.21 -399.84 552.33 540 -387.51 238.12 552.33 540 1492.17 841.88 552.33 540 144.39 1005.17 552.33 540 960.27 74.83 552.33 540 87.16 132.06 552.33 540 1017.5 947.94 552.33 540 498.66 1154.9 552.33 540 606 -74.89 552.33 540 -62.56 486.33 552.33 540 1167.23 593.67 552.33 540 -234.46 1178.87 552.33 540 1339.13 -98.87 552.33 540 -86.54 -246.79 552.33 540 1191.2 1326.8 552.33 540 84.39 1209.48 552.33 540 1020.27 -129.48 552.33 540 -117.15 72.06 552.33 540 1221.81 1007.94 552.33 540 80.38 1179.52 552.33 540 1024.28 -99.52 552.33 540 -87.19 68.05 552.33 540 1191.85 1011.95 552.33 540 -63.96 722.25 552.33 540 1168.62 357.75 552.33 540 370.08 -76.29 552.33 540 734.58 1156.29 552.33 540 592.24 1046 552.33 540 512.42 34 552.33 540 46.33 579.91 552.33 540 1058.34 500.09 552.33 540 221.65 666.25 552.33 540 883.01 413.75 552.33 540 426.08 209.32 552.33 540 678.58 870.68 552.33 540 -652.22 1008.77 552.33 540 1756.88 71.23 552.33 540 83.56 -664.55 552.33 540 1021.1 1744.55 552.33 540 427.58 593.02 552.33 540 677.08 486.98 552.33 540 499.31 415.25 552.33 540 605.35 664.75 552.33 540 552.76 551.67 552.33 540 551.91 528.33 552.33 540 540.66 540.43 552.33 540 564 539.57"/><circle class="cls-3" cx="552.33" cy="540" r="536.9"/><circle class="cls-4" cx="552.33" cy="540" r="268.45"/><circle class="cls-5" cx="552.33" cy="540" r="223.71"/><polyline class="cls-6" points="552.33 540 293.31 834.64 552.33 540 811.35 245.36 552.33 540 257.69 280.98 552.33 540 846.97 799.02 552.33 540 454.6 939.83 552.33 540 650.07 140.17 552.33 540 152.51 442.26 552.33 540 952.16 637.74 552.33 540 530.46 924.8 552.33 540 574.2 155.2 552.33 540 167.53 518.13 552.33 540 937.13 561.87 552.33 540 250.45 1479.84 552.33 540 854.21 -399.84 552.33 540 -387.51 238.12 552.33 540 1492.17 841.88 552.33 540 144.39 1005.17 552.33 540 960.27 74.83 552.33 540 87.16 132.06 552.33 540 1017.5 947.94 552.33 540 498.66 1154.9 552.33 540 606 -74.89 552.33 540 -62.56 486.33 552.33 540 1167.23 593.67 552.33 540 -234.46 1178.87 552.33 540 1339.13 -98.87 552.33 540 -86.54 -246.79 552.33 540 1191.2 1326.8 552.33 540 84.39 1209.48 552.33 540 1020.27 -129.48 552.33 540 -117.15 72.06 552.33 540 1221.81 1007.94 552.33 540 80.38 1179.52 552.33 540 1024.28 -99.52 552.33 540 -87.19 68.05 552.33 540 1191.85 1011.95 552.33 540 -63.96 722.25 552.33 540 1168.62 357.75 552.33 540 370.08 -76.29 552.33 540 734.58 1156.29 552.33 540 592.24 1046 552.33 540 512.42 34 552.33 540 46.33 579.91 552.33 540 1058.34 500.09 552.33 540 221.65 666.25 552.33 540 883.01 413.75 552.33 540 426.08 209.32 552.33 540 678.58 870.68 552.33 540 -652.22 1008.77 552.33 540 1756.88 71.23 552.33 540 83.56 -664.55 552.33 540 1021.1 1744.55 552.33 540 427.58 593.02 552.33 540 677.08 486.98 552.33 540 499.31 415.25 552.33 540 605.35 664.75 552.33 540 552.76 551.67 552.33 540 551.91 528.33 552.33 540 540.66 540.43 552.33 540 564 539.57"/></g></g></svg>