<?xml version="1.0" encoding="UTF-8"?><svg id="Graphic_Elements" xmlns="http://www.w3.org/2000/svg" viewBox="0 0 271.99 317.6"><defs><style>.cls-1{fill:#fff;}</style></defs><path class="cls-1" d="M142.8,80.17c24.26,0,27.14,.09,36.72,.53,8.86,.4,13.67,1.88,16.87,3.13,4.24,1.65,7.27,3.62,10.45,6.8,3.18,3.18,5.15,6.21,6.8,10.45,1.24,3.2,2.72,8.01,3.13,16.87,.44,9.58,.53,12.46,.53,36.72s-.09,27.14-.53,36.72c-.4,8.86-1.88,13.67-3.13,16.87-1.65,4.24-3.62,7.27-6.8,10.45-3.18,3.18-6.21,5.15-10.45,6.8-3.2,1.24-8.01,2.72-16.87,3.13-9.58,.44-12.45,.53-36.72,.53s-27.14-.09-36.72-.53c-8.86-.4-13.67-1.88-16.87-3.13-4.24-1.65-7.27-3.62-10.45-6.8-3.18-3.18-5.15-6.21-6.8-10.45-1.24-3.2-2.72-8.01-3.13-16.87-.44-9.58-.53-12.46-.53-36.72s.09-27.14,.53-36.72c.4-8.86,1.88-13.67,3.13-16.87,1.65-4.24,3.62-7.27,6.8-10.45,3.18-3.18,6.21-5.15,10.45-6.8,3.2-1.24,8.01-2.72,16.87-3.13,9.58-.44,12.46-.53,36.72-.53m0-16.37c-24.68,0-27.77,.1-37.46,.55-9.67,.44-16.28,1.98-22.06,4.22-5.98,2.32-11.04,5.43-16.09,10.48-5.05,5.05-8.16,10.12-10.48,16.09-2.25,5.78-3.78,12.39-4.22,22.06-.44,9.69-.55,12.79-.55,37.46s.1,27.77,.55,37.46c.44,9.67,1.98,16.28,4.22,22.06,2.32,5.98,5.43,11.04,10.48,16.09,5.05,5.05,10.12,8.16,16.09,10.48,5.78,2.25,12.39,3.78,22.06,4.22,9.69,.44,12.79,.55,37.46,.55s27.77-.1,37.46-.55c9.67-.44,16.28-1.98,22.06-4.22,5.98-2.32,11.04-5.43,16.09-10.48,5.05-5.05,8.16-10.12,10.48-16.09,2.25-5.78,3.78-12.39,4.22-22.06,.44-9.69,.55-12.79,.55-37.46s-.1-27.77-.55-37.46c-.44-9.67-1.98-16.28-4.22-22.06-2.32-5.98-5.43-11.04-10.48-16.09-5.05-5.05-10.12-8.16-16.09-10.48-5.78-2.25-12.39-3.78-22.06-4.22-9.69-.44-12.79-.55-37.46-.55h0Z"/><path class="cls-1" d="M142.8,108c-25.77,0-46.66,20.89-46.66,46.66s20.89,46.66,46.66,46.66,46.66-20.89,46.66-46.66-20.89-46.66-46.66-46.66Zm0,76.95c-16.73,0-30.29-13.56-30.29-30.29s13.56-30.29,30.29-30.29,30.29,13.56,30.29,30.29-13.56,30.29-30.29,30.29Z"/><circle class="cls-1" cx="191.31" cy="106.16" r="10.9"/></svg>