<?xml version="1.0" encoding="UTF-8"?><svg id="ELEMENTS" xmlns="http://www.w3.org/2000/svg" viewBox="0 0 231.16 216.76"><defs><style>.cls-1{fill:#fff;}</style></defs><path class="cls-1" d="M75.04,77.27l32.39,36.75c1.84,2.09,4.49,3.29,7.28,3.29s5.44-1.2,7.28-3.29l31.82-36.11c.26-.3,.57-.53,.9-.71-1.35-.59-2.84-.92-4.4-.92H79.1c-1.5,0-2.93,.3-4.23,.84,.05,.05,.11,.1,.17,.15Z"/><path class="cls-1" d="M159.62,81.42c-.14,.37-.34,.73-.62,1.05l-31.83,36.11c-3.15,3.58-7.7,5.63-12.46,5.63s-9.31-2.05-12.46-5.63l-32.39-36.75c-.07-.07-.11-.16-.17-.24-1,1.66-1.59,3.59-1.59,5.67v49.74c0,6.08,4.92,11,11,11h71.21c6.07,0,11-4.93,11-11v-49.74c0-2.15-.63-4.15-1.69-5.84Z"/></svg>