<?xml version="1.0" encoding="UTF-8"?><svg id="Lager_2" xmlns="http://www.w3.org/2000/svg" xmlns:xlink="http://www.w3.org/1999/xlink" viewBox="0 0 206.57 12.66"><defs><style>.cls-1{stroke-width:.37px;}.cls-1,.cls-2,.cls-3,.cls-4{stroke-miterlimit:10;}.cls-1,.cls-3{stroke:#010101;}.cls-1,.cls-5{fill:#1d1d1b;}.cls-2{stroke-dasharray:0 0 1.15 1.15;}.cls-2,.cls-3,.cls-4{fill:none;}.cls-2,.cls-4{stroke:#fff;stroke-width:2.76px;}.cls-3{stroke-width:1.47px;}.cls-5{stroke-width:0px;}</style><symbol id="Ny_symbol" viewBox="0 0 13.18 12.66"><rect class="cls-3" x=".73" y=".73" width="11.19" height="11.19"/><line class="cls-4" x1="11.8" y1="2.31" x2="11.8" y2="3.25"/><line class="cls-2" x1="11.8" y1="4.4" x2="11.8" y2="6.13"/><line class="cls-4" x1="11.8" y1="6.71" x2="11.8" y2="7.65"/></symbol></defs><g id="Lager_1-2"><path class="cls-5" d="m22.2.24h7.31c6.39,0,7.67,1.16,7.67,6s-1.28,6-7.67,6h-7.31V.24Zm7.31,9.39c4.06,0,4.5-.32,4.5-3.41s-.45-3.38-4.5-3.38h-4.18v6.79h4.18Z"/><path class="cls-5" d="m38.77.24h12.7v2.56h-9.58v2.1h9.07v2.47h-9.07v2.31h9.78v2.56h-12.9V.24Z"/><path class="cls-5" d="m53.94,11.61c-.83-.54-1.06-1.37-1.06-2.84v-.32h3.15v.05c0,.73.11,1,.52,1.22.42.22,1.39.31,3.53.31,2.47,0,3.19-.11,3.58-.29.42-.2.52-.43.52-1,0-.52-.14-.82-.51-1-.37-.19-1.14-.22-5.03-.31-2.44-.06-3.72-.28-4.49-.76-.85-.53-1.17-1.39-1.17-2.95s.46-2.39,1.31-2.9c.92-.56,2.53-.8,5.65-.8,2.81,0,4.78.2,5.82.86.86.55,1.03,1.48,1.03,2.78v.22h-3.15v-.02c0-.55-.06-.89-.48-1.09-.45-.22-1.3-.29-3.27-.29-2.18,0-2.92.08-3.3.26-.42.2-.51.51-.51.94,0,.56.2.79.48.93.31.15.82.22,3.78.28,3.36.06,4.88.23,5.79.79.86.52,1.14,1.5,1.14,2.96,0,1.57-.4,2.45-1.25,2.99s-2.31.86-6.03.86-5.08-.23-6.05-.86Z"/><path class="cls-5" d="m68.69.24h3.13v12h-3.13V.24Z"/><path class="cls-5" d="m73.4,6.24C73.4,1.18,74.82.01,81.24.01c5.65,0,7.14.85,7.14,3.95v.19h-2.99v-.02c0-1.22-.56-1.53-4.27-1.53-4.15,0-4.57.46-4.57,3.64s.4,3.64,4.55,3.64,4.46-.39,4.46-1.77v-.23h-5.04v-2.45h7.99v2.68c0,2.96-.62,4.37-7.41,4.37-6.25,0-7.7-1.16-7.7-6.23Z"/><path class="cls-5" d="m90.17.24h4.55l7.59,9.09h.03V.24h3.07v12h-4.47l-7.65-9.15h-.03v9.15h-3.08V.24Z"/><path class="cls-5" d="m107.31.24h9.16c3.67,0,4.77.83,4.77,3.12,0,1.56-.52,2.28-1.91,2.65v.06c1.68.36,2.31,1.13,2.31,2.87,0,2.41-1.22,3.3-5.14,3.3h-9.19V.24Zm9.19,4.71c1.3,0,1.65-.22,1.65-1.13s-.37-1.16-1.67-1.16h-6.08v2.28h6.09Zm0,4.88c1.6,0,2.01-.25,2.01-1.26s-.42-1.25-2.01-1.25h-6.09v2.51h6.09Z"/><path class="cls-5" d="m127.65,8.06L121.15.24h3.75l4.41,5.4h.03l4.41-5.4h3.52l-6.5,7.82v4.18h-3.13v-4.18Z"/><path class="cls-5" d="m137.99,11.61c-.83-.54-1.06-1.37-1.06-2.84v-.32h3.15v.05c0,.73.11,1,.52,1.22.42.22,1.39.31,3.53.31,2.47,0,3.19-.11,3.58-.29.42-.2.52-.43.52-1,0-.52-.14-.82-.51-1-.37-.19-1.14-.22-5.03-.31-2.44-.06-3.72-.28-4.49-.76-.85-.53-1.17-1.39-1.17-2.95s.46-2.39,1.31-2.9c.92-.56,2.53-.8,5.65-.8,2.81,0,4.78.2,5.82.86.86.55,1.03,1.48,1.03,2.78v.22h-3.15v-.02c0-.55-.06-.89-.48-1.09-.45-.22-1.3-.29-3.27-.29-2.18,0-2.92.08-3.3.26-.42.2-.51.51-.51.94,0,.56.2.79.48.93.31.15.82.22,3.78.28,3.36.06,4.88.23,5.79.79.86.52,1.14,1.5,1.14,2.96,0,1.57-.4,2.45-1.25,2.99s-2.31.86-6.03.86-5.08-.23-6.05-.86Z"/><path class="cls-5" d="m157.49.24h4.03l6.46,12h-3.66l-1.11-2.14h-7.62l-1.11,2.14h-3.46L157.49.24Zm4.38,7.27l-2.47-4.75-2.47,4.75h4.94Z"/><path class="cls-5" d="m168.66.24h4.55l7.59,9.09h.03V.24h3.07v12h-4.47l-7.65-9.15h-.03v9.15h-3.08V.24Z"/><path class="cls-5" d="m185.81.24h3.13v12h-3.13V.24Z"/><path class="cls-5" d="m196.08.24h4.03l6.46,12h-3.66l-1.11-2.14h-7.62l-1.11,2.14h-3.46L196.08.24Zm4.38,7.27l-2.47-4.75-2.47,4.75h4.94Z"/><use width="13.18" height="12.66" xlink:href="#Ny_symbol"/><circle class="cls-1" cx="15.61" cy="2.56" r="1.38"/></g></svg>