<?xml version="1.0" encoding="utf-8"?>
<!-- Generator: Adobe Illustrator 27.7.0, SVG Export Plug-In . SVG Version: 6.00 Build 0)  -->
<svg version="1.1" id="Lager_1" xmlns="http://www.w3.org/2000/svg" xmlns:xlink="http://www.w3.org/1999/xlink" x="0px" y="0px"
	 viewBox="0 0 978.4 613.8" style="enable-background:new 0 0 978.4 613.8;" xml:space="preserve">
<style type="text/css">
	.st0{fill:#FFFFFF;}
</style>
<rect x="-7.7" y="-5.9" class="st0" width="990.6" height="639.3"/>
<path d="M223.5,226.4c-11.1-7.3-27.4-10.9-49-10.9c-19.7-0.4-39.2,4.2-56.7,13.3c-16.2,8.8-24.3,20.5-24.3,34.9
	c-0.3,7.2,2.3,14.3,7.3,19.6c4,4.5,9.5,7.5,15.5,8.5c2.8-4.9,4.6-10.2,5.3-15.8c-3.5-1-6.7-2.7-9.5-5c-3-2.3-4.7-5.9-4.6-9.7
	c0-7.8,5.8-15.3,17.5-22.4c13.4-7.5,28.6-11.2,44-10.6c13.5,0,23.3,2.5,29.3,7.6c6,5,9.1,13.2,9.1,24.4c0,5.9-0.7,11.7-2,17.4
	c-1.5,5.7-4.5,11-8.6,15.2c-4.3,4.7-10.5,7.2-16.8,7c-3.6,0.1-7.3-0.5-10.7-1.8c6.8-27.6,10.2-43.6,10.2-48c0.2-3-0.1-6-1.1-8.8
	c-3.2-0.9-6.5-1.4-9.8-1.3c-9.8-0.3-19.5,1.9-28.1,6.6l-0.2,1.5c1.6,1.7,3,3.6,4.2,5.6c0.7,1.9,1.1,3.9,0.9,6
	c0,8.5-3.6,26.9-10.9,55.2c-7.3,28.3-11.3,46.9-12.2,55.8c1.7,0.5,3.5,0.7,5.3,0.7c9.4,0.1,18.8-1.1,27.9-3.6
	c2.2-19.7,5.9-39.2,10.9-58.4c6.2,2.4,12.8,3.6,19.4,3.4c10.8,0.3,21.5-2.6,30.7-8.3c15.8-10.1,23.7-25,23.6-44.8
	C240.1,244.7,234.6,233.6,223.5,226.4z"/>
<path d="M317.9,295.8c0-13.4-3.8-20-11.5-20c-5.7,0.2-11.2,2.5-15.3,6.4c-3.7,2.9-7,6.4-9.8,10.2c0.2-5.3-0.6-10.6-2.5-15.6
	c-12.4-0.4-24.8,0.7-36.9,3.3l-0.2,2.8l1.9,2.5c3.5,4.1,5.6,9.2,6,14.5c-1.4,10.3-3.3,20.4-5.7,30.5c-2.7,10.8-4.6,21.7-5.7,32.7
	c-0.1,2.6,0.1,5.2,0.4,7.8h1.5c14.8,0,24.6-1,29.6-3c-0.1-1.3-0.2-3.5-0.2-6.6c0-8.7,3.3-27.7,9.8-57.1c2.5-2.9,5.8-5.1,9.4-6.4
	c1.1,0,2.8,1.9,5.1,5.7c1,1.9,2.2,3.8,3.4,5.6c3.8-0.7,7.4-2.3,10.5-4.5c2.6-1.6,5.1-3.5,7.3-5.6L317.9,295.8z"/>
<path d="M574,395.2l-9.1,3c-6.1,1.5-12.5,2-18.8,1.5c-7-0.4-12-0.9-16.3-1.6s-11.9-1.8-21.5-3.8c-5.4-1.1-10.7-2.6-15.9-4.5
	c9.5-17.6,15.6-37.1,21.2-68.2l-17.1-4c-8.4,13.8-17.8,20.8-28.1,20.8c-6.4,0-12.3-3.4-15.6-8.9c-4.1-6-6.2-16.9-6.2-32.7
	c-0.2-14.9,3.2-29.6,10.1-42.8c6.7-12.7,15.3-19.5,25.7-20.2c-13.2,14.2-19.8,29.6-19.8,46.3c-0.3,7.1,1.5,14.2,5.3,20.3
	c3.5,5.2,9.4,8.2,15.7,7.9c7.1-0.1,13.9-3.1,18.9-8.2c5.8-5.4,10.1-12.2,12.7-19.7c2.6-7.7,3.9-15.8,3.9-24
	c0.5-10.1-3.1-20-9.8-27.5c6.2-2.7,12.9-4.1,19.6-4c7,0,13.8,2.6,19,7.3c3.1-3.8,5.2-8.3,6-13.2c-5.5-5.1-13.5-7.7-24.1-7.7
	c-11.4,0.2-22.6,3.7-32.1,10c-4.3-1.4-8.9-2.2-13.4-2.1c-13.5-0.1-26.5,4.4-37.1,12.7c-11.2,8.5-20,19.6-25.7,32.4
	c-5.5,12.3-8.5,25.5-8.9,38.9l-3.3,0.8c-5.8,1.3-11.7,2-17.7,2.3c0-21.2-5.6-31.7-16.8-31.7c-2.8,0-5.6,0.6-8.1,1.9l-7.7-0.4
	c-13.8-0.5-27,5.9-35.1,17.1c-8.6,11.8-13.1,26.1-12.7,40.7c0,12.4,2.8,22,8.3,28.9c5.6,6.9,14.1,10.8,23,10.3
	c12.7,0.1,24.6-6.1,31.7-16.5c8.4-11.5,14.1-24.8,16.4-38.9l4.4-0.9c6-1.1,11.9-2.7,17.6-4.8c0.3,11.8,4.5,23.2,12,32.4
	c7.7,9.5,19.3,14.8,31.5,14.5c7.3,0.1,14.4-1.9,20.5-5.7c-0.9,9.9-2.9,19.7-6.1,29.1c-6.5-1.9-13.4-2.7-20.2-2.4
	c-6.4,0.2-12.5,2.8-17,7.3c-4.3,3.9-6.7,9.6-6.4,15.5c0.1,5.5,2.8,10.6,7.3,13.8c5.1,3.4,11.3,5,17.4,4.4c10.9-0.5,21-6.3,29.9-15.7
	l32.7,14c4,1.7,8.8,3.5,14.5,5.5c5.1,1.9,10.4,3.1,15.8,3.6c5,0.3,10.1-0.1,14.9-1.5c5.4-1.5,10.1-4.7,13.5-9.2
	c3.6-4.3,6.1-9.4,7.5-14.9C578.8,399.7,576.5,397.3,574,395.2z M496.2,236.8c5.5,4.3,8.3,11.3,8.3,21.1c0.1,8.9-1.8,17.8-5.6,25.9
	c-3.6,7.5-8.4,11.2-14.2,11.2s-8.7-5.8-8.7-17.3c0.2-7.4,2.1-14.7,5.4-21.3C484.9,248.8,489.9,242.2,496.2,236.8z M370.3,342.9
	c-4.8,7.7-10.2,11.5-16.1,11.5c-7.8,0-11.7-7.7-11.7-23c-0.2-9.8,1.4-19.5,4.7-28.8c3.1-8.4,6.5-13.7,10-16c0.6-0.3,1.3-0.5,1.9-0.4
	c0.7,0,1.5,0.1,2.1,0.4l-1.1,2.1c-1.9,4-2.8,8.4-2.8,12.8c0,11.4,7.6,17.1,22.8,17.1C378.4,327.2,375,335.4,370.3,342.9z
	 M450.3,404.4c-2.1,0.1-4.3-0.3-6.3-1.2c-1.7-0.7-2.9-2.3-3-4.1c-0.2-4.2,2.7-6.4,8.8-6.7c5.1,0,10.1,1.2,14.5,3.6
	C461.2,400.8,456,403.8,450.3,404.4L450.3,404.4z"/>
<path d="M892.4,275.7c-5.7,0.2-11.2,2.5-15.3,6.4c-3.7,2.9-7,6.4-9.8,10.2c0.2-5.3-0.6-10.6-2.5-15.6c-12.4-0.4-24.8,0.6-36.9,3.2
	l-0.2,2.8l1.9,2.5c3.5,4.1,5.6,9.2,6,14.5c-1.4,10.3-3.3,20.4-5.7,30.5c-1.3,6.2-2.4,11.5-3.3,16l-6.4,3.4l-2.5,1.3
	c-3,1.7-6.1,3.1-9.4,4c-1.1,0-1.7-2.7-1.7-8.2c0.4-9.2,1.5-18.4,3.2-27.5c2-12.5,4.9-24.9,8.5-37c-8.6-3.4-17.6-5.4-26.8-5.9
	c-0.6,1.9-1.4,3.8-2.3,5.5c-7-4-14.9-6.1-23-6.2c-11.1,0-20.5,5.5-28.3,16.5s-11.7,26-11.7,45.1c0,3,0.2,6.1,0.5,9.1l-6.7,3.6
	c-4.5,2.4-9.2,4.2-14.2,5.3c-1.8,0-2.7-2.1-2.7-6.2c0-7.8,3.3-27.6,9.8-59.2h3.8c5.1,0,10.2,0.3,15.3,0.8c1.9-3.9,3.1-8.1,3.6-12.4
	h-20.7c1.9-7.9,3.1-16,3.6-24.1c0-3.6-0.3-7.1-0.9-10.7c-10.7,0.1-21.3,2-31.4,5.6v0.7l0.2,6.6c0,7.3-0.6,14.6-1.7,21.8h-13.4
	c-0.5,2.4-0.7,4.8-0.7,7.3c0,2.3,0.1,4.6,0.4,6.9c2.5-0.4,6.4-0.9,11.7-1.3c-1,5.8-2.6,13.5-4.7,22.9c-2.1,9.5-3.8,17.4-5,24
	c-0.5,2.7-0.8,5.1-1.1,7.6l-8.3,4.3l-2.4,1.2c-3.1,1.7-6.4,3.1-9.8,4c-1.3,0-1.9-2.2-1.9-6.7c1-9.7,2.9-19.2,5.7-28.5
	c3-10,5-20.4,5.7-30.8c0.4-4.2-0.5-8.5-2.8-12.1c-12.3-0.5-24.6,0.6-36.7,3.2l-0.2,2.8l1.9,2.5c3.6,4.9,5.5,10.8,5.5,16.8
	c-0.9,8.8-2.7,17.5-5.3,25.9c-2.1,7.7-3.6,14-4.4,19l-6,3.1c-3.9,2.1-8,3.8-12.1,5.1c-1.4,0-2.1-1.7-2.1-5c1.3-11.5,3.3-22.9,6-34.1
	c3-12.8,5-25.9,6-39.1h-4c-12.9,0-21.9,1-26.8,3c0,9.7-2.6,26-7.7,48.8c-2.3,9.7-3.7,16.2-4.3,19.6c-4.3,2.5-9.2,4-14.1,4.2
	c-2.8,0-4.3-1.9-4.3-5.7c1.2-10,3.2-19.8,6-29.4c3-10.1,5-20.4,6-30.9c0.2-3.4-0.2-6.7-1.1-10c-12.8-0.3-25.6,0.7-38.1,3l-0.2,2.8
	c5.1,5.7,7.6,10.1,7.6,13.4c-1.1,9.2-3,18.2-5.5,27.1c-2.9,10.2-4.7,20.6-5.4,31.1c-0.3,5.1,1.4,10.1,4.8,14
	c3.2,3.3,7.7,5.1,12.3,4.9c9.4,0,19.8-4.7,31.3-14.1c0.3,3.9,2.3,7.6,5.4,10c3.3,2.6,7.4,3.9,11.6,3.8c9.5,0,20.6-5.3,33.2-15.8
	l1-0.9c-0.2,4.4,1.3,8.7,4.3,12.1c3.1,3.1,7.3,4.8,11.7,4.6c5.7-0.2,11.2-1.7,16.2-4.4c4.2-1.9,8.2-4.2,11.9-6.9
	c2.1-1.7,7.6-6.2,8.9-7.3l0,0c0,0.5,0,1,0,1.5c-0.5,9,6.3,16.6,15.3,17.2c0.6,0,1.2,0,1.8,0c10.8,0,22.5-5.3,35.2-15.8l4.1-3.6
	c1,4,3,7.7,5.7,10.9c4.6,5.5,11.4,8.6,18.5,8.5c7.3,0,15.5-4,24.6-11.9c1.4,8,6.5,11.9,15.3,11.9c5.4-0.2,10.6-1.7,15.3-4.4
	c4.1-1.9,8-4.2,11.6-6.9c2.1-1.7,3.7-3.1,5-4.3l0.8-0.8c-0.4,2.2-0.6,4.4-0.7,6.7c-0.1,2.6,0,5.2,0.4,7.8h1.5c14.8,0,24.6-1,29.6-3
	c-0.1-1.3-0.2-3.5-0.2-6.6c0-8.7,3.3-27.7,9.8-57.1c2.5-2.9,5.8-5.1,9.4-6.4c1.1,0,2.8,1.9,5.1,5.7c1.1,2,2.3,3.9,3.6,5.7
	c3.8-0.7,7.4-2.3,10.5-4.5c2.6-1.6,5.1-3.5,7.3-5.6l2.9-3.3C904,282.5,900.1,275.7,892.4,275.7z M776,350.6c-3.4,2.4-7.4,3.8-11.5,4
	c-5.3,0-7.9-6.1-7.9-18.2c-0.1-11.3,1.7-22.5,5.4-33.1c3.6-10,8-15,13.1-15c3.8,0.2,7.5,1.1,10.9,2.8
	C780.4,310.5,777,330.5,776,350.6L776,350.6L776,350.6z"/>
<path d="M648.7,257.6c5,0,9.8-1.9,13.5-5.3c3.8-3,6-7.5,6.1-12.3c0.2-4.2-1.4-8.2-4.3-11.2c-3.2-3-7.5-4.5-11.9-4.3
	c-5,0-9.9,1.9-13.5,5.3c-3.7,3.1-5.8,7.6-5.9,12.4c-0.2,4.2,1.3,8.2,4.3,11.2C640.2,256.4,644.4,257.9,648.7,257.6z"/>
</svg>
