<svg id="Lager_1" data-name="Lager 1" xmlns="http://www.w3.org/2000/svg" viewBox="0 0 659.79 288.28"><defs><style>.cls-1{fill:#fff;}</style></defs><path class="cls-1" d="M516.26,254.29c-12.44-.79-24.94-1.56-37.4-.6a110.49,110.49,0,0,0-18.7,3c-3,.76-5.88,1.74-8.79,2.71a36.33,36.33,0,0,1-8.51,2.12c-4.52.35-9.91-1.42-10.77-6.24l-5.79,1.6c1.48,4.54-2,10.52-6.88,11-5.26.45-9.81-5.36-8.59-10.23h-5.78a4,4,0,0,1,.19,3,6.44,6.44,0,0,1-1.7,2.67,8,8,0,0,1-6.09,2.38c-5.69-.69-9.27-6.58-10.69-11.61-.85-3-4.83-2.7-5.79,0a39.35,39.35,0,0,1-3.2,7.28,13.75,13.75,0,0,1-2.18,2.81,9.39,9.39,0,0,1-2.56,1.78,6,6,0,0,1-4.94-.47,4.66,4.66,0,0,1-1.7-1.47c-.06-.08-.34-.65-.14-.19A3.94,3.94,0,0,1,366,263c-.06-.29,0,.33,0-.21s-.11.27,0-.43l-5.89-.8a8.05,8.05,0,0,1-1.53,4.12,10.84,10.84,0,0,1-3.11,2.81,11.55,11.55,0,0,1-3.89,1.44,7.79,7.79,0,0,1-4.37-.54l1.48,2.59C348,260.09,360,248.6,371.88,250.59l-.71-5.48c-22,16-52.11,18.81-70.51,40.13-14.41,16.72-19,39.73-16,61.21,3,21.29,13.86,42,31.92,54.19a48.19,48.19,0,0,0,34.6,7.69,40.47,40.47,0,0,0,26.06-17.21c6.59-9.6,9-21.74,7.86-33.23-1-10.28-4.85-20.1-9.77-29.11-10.49-19.18-26-35.33-41.46-50.6-16.48-16.29-33.77-31.83-49.15-49.19-13.18-14.88-25.64-31.79-30.05-51.32a47.09,47.09,0,0,1,5-33.7,33.26,33.26,0,0,1,12.42-12.39c6.52-3.63,14.11-4.74,21.48-4.87,23.88-.41,50.36,8.6,65.29,28.07A52.73,52.73,0,0,1,367,170c1.22,3.64,7,2.08,5.79-1.59-8.19-24.47-31.63-39.81-55.92-45.3a98.71,98.71,0,0,0-19-2.41c-7.71-.23-15.7.34-23,3-12.65,4.65-21.32,15.37-25.11,28.11-3.33,11.21-2.65,22.9.93,33.94a106.92,106.92,0,0,0,13.54,26.81c12.63,18.6,28.91,34.47,45,50,16.29,15.74,33.08,31.21,47.25,48.94,12.24,15.31,24,34.11,22.81,54.72-.58,10.41-4.72,20.6-12.39,27.71a34.17,34.17,0,0,1-12.16,7.22,35.15,35.15,0,0,1-15.32,1.55c-21.62-2.24-37.68-21.2-44.66-40.43a82,82,0,0,1-5-31,72.71,72.71,0,0,1,7.06-29.52,59.14,59.14,0,0,1,8.27-12.56,60.87,60.87,0,0,1,13.71-11.53c11.81-7.4,25.18-11.7,37.78-17.47a101.79,101.79,0,0,0,17.58-10,3.06,3.06,0,0,0,1.44-3,3,3,0,0,0-2.15-2.49c-15.65-2.61-31.74,11.07-30.71,27.2a3,3,0,0,0,1.49,2.59c9.45,4.38,21.32-2.53,21.93-13,.19-3.35-5.19-4.11-5.9-.8-1.6,7.5,6.43,12.34,13.08,11.15,7.65-1.35,11.11-9.95,13.39-16.36H381c2.17,7.67,8.12,15.67,16.77,16,7.72.32,16.08-7.67,13.09-15.63-1-2.6-5-3.09-5.78,0-2.16,8.61,5.19,18.48,14.37,17.82,8.73-.64,15.41-10.11,12.67-18.55-1.21-3.71-6.46-2.17-5.79,1.6,1,5.34,5.89,9.07,10.95,10.23,6.29,1.44,12.47-.85,18.37-2.82,12.4-4.13,25.42-5.16,38.43-5,7.41.1,14.81.56,22.21,1a3,3,0,0,0,0-6Z" transform="translate(-247.61 -120.69)"/><path class="cls-1" d="M393.36,226.92c3.86,0,3.86-6,0-6s-3.87,6,0,6Z" transform="translate(-247.61 -120.69)"/><path class="cls-1" d="M464.16,145.8q1.21,43.45,3.76,86.85t6.41,86.69q2.16,24.24,4.75,48.45a3.08,3.08,0,0,0,3,3,3,3,0,0,0,3-3q-4.6-43.23-7.9-86.57t-5.24-86.77q-1.1-24.31-1.78-48.65c-.11-3.85-6.11-3.87-6,0Z" transform="translate(-247.61 -120.69)"/><path class="cls-1" d="M436.06,168.09c-1.11-5.71,1.53-11.55,5.41-15.65,4.44-4.7,10.55-7.2,16.75-8.62,10.85-2.49,22.48-2.45,33.52-1.48,21.45,1.9,43.37,8.68,61.36,21a80.62,80.62,0,0,1,21.92,22c6.47,10,9.29,22.39,6.31,34.07a30.84,30.84,0,0,1-7.68,14.05,38.23,38.23,0,0,1-4.78,4.18,45.26,45.26,0,0,1-5.76,3.52C555,245.4,545,247.35,535.82,248c-20.3,1.32-40.63-2.24-59.93-8.57q-2.92-1-5.8-2l-1.6,5.79A174.52,174.52,0,0,1,523,260.72a178.65,178.65,0,0,1,46.1,34.11,168.63,168.63,0,0,1,18.09,22c5.23,7.61,10,15.55,15.85,22.71,5.71,7,12.68,13.09,21.34,16,9.79,3.33,20.28,1.61,29.46-2.7,20.07-9.41,30.61-29.39,44.54-45.46q2.61-3,5.44-5.84c2.74-2.73-1.5-7-4.24-4.24-14.93,14.82-24.36,35.3-42.45,46.86-7.87,5-17.49,8.52-26.93,6.71-8.49-1.62-15.27-6.86-20.92-13.24-5.85-6.63-10.45-14.24-15.36-21.56a180.47,180.47,0,0,0-17.86-22.64A183.23,183.23,0,0,0,531,258.19a180.18,180.18,0,0,0-53.95-19.68c-2.31-.44-4.63-.82-7-1.17a3.1,3.1,0,0,0-3.69,2.1,3.06,3.06,0,0,0,2.09,3.69,178.12,178.12,0,0,0,28.4,7.86,163.1,163.1,0,0,0,33.42,3.19c10.41-.18,21.1-1.56,30.79-5.52s18.79-10.61,23.37-20.36c5.89-12.52,4.93-27.29-.72-39.71a63.71,63.71,0,0,0-9.42-14.14,83.88,83.88,0,0,0-11.86-11.52C544,148.14,520.93,140,497.68,137a130.66,130.66,0,0,0-34-.18c-7.21.95-14.48,2.72-20.68,6.67a28.51,28.51,0,0,0-12.42,16.24,22.09,22.09,0,0,0-.32,10,3,3,0,0,0,3.69,2.09,3.06,3.06,0,0,0,2.1-3.69Z" transform="translate(-247.61 -120.69)"/><path class="cls-1" d="M592,246.94c-9.93,0-17.78,10.12-15.5,19.72.41,1.72,2.14,2.32,3.7,2.1a15,15,0,0,0,12.31-12.26l-5.78-1.6a8.09,8.09,0,0,0,5.93,9c4.15,1.28,8.21-.84,11.31-3.47a51.34,51.34,0,0,0,12.53-17.11,64.58,64.58,0,0,0,4.63-41,57.16,57.16,0,0,0-9.48-21.34c-1.17-1.6-4.17-2.26-5.18,0a95.17,95.17,0,0,0-7.89,48.86A97.59,97.59,0,0,0,600.6,242c.83,3.46,1.63,7.28,3.55,10.32a11.26,11.26,0,0,0,13.72,4.58c6.22-2.21,11.21-7.28,14.73-12.73l-5.19-3c-4,7.44,2,16.58,9.87,18,9,1.67,16.8-5.34,20.54-12.82l-5.49-2.31c-1.89,7.66,5.66,13.81,12.84,13.78,8.3,0,14.15-7.38,18.7-13.37l-5.48-.72c2.38,10.51,18.69,12.72,23.92,3.4l-4.71.61,5.83,6.91a3,3,0,0,0,2.92.77L719,251.25l-2.31-.3a21.92,21.92,0,0,0,28.53-7.2l-4.71.61a11.27,11.27,0,0,1,2.06,9.32,3.09,3.09,0,0,0,2.1,3.69,41.82,41.82,0,0,0,43.64-11.47,3,3,0,0,0-2.12-5.12c-4.52-.37-8.67,2.2-11.17,5.82a12.66,12.66,0,0,0-1.19,12.57c.81,1.79,3.46,1.86,4.71.61a108.23,108.23,0,0,0,15.26-19.2h-5.18c5.08,11.49,21.51,14.46,30.76,6.45h-4.24c9.26,9.43,23.34,4.56,34.76,3.71,14.15-1.05,27.88,5.95,42,2.2,6.31-1.68,12.26-5.44,15.13-11.48a3.07,3.07,0,0,0-1.07-4.1,3,3,0,0,0-4.11,1.07c-4.84,10.2-18.17,10.49-27.77,9-7.16-1.13-14.31-2.93-21.61-2.79-5.81.1-11.52,1.39-17.29,1.92-5.56.51-11.61.49-15.78-3.76a3.08,3.08,0,0,0-4.24,0c-6.55,5.67-17.9,2.56-21.34-5.23-1-2.17-4.1-1.73-5.18,0a100.57,100.57,0,0,1-14.32,18l4.71.61c-2-4.4,2.68-9.73,7.18-9.36l-2.13-5.13a35.85,35.85,0,0,1-37.8,9.93l2.1,3.69a17.71,17.71,0,0,0-3.61-15.15c-1.26-1.59-3.77-.86-4.71.6a15.83,15.83,0,0,1-13.94,6.84,14,14,0,0,1-3.79-.66c-1.63-.5-3.14-1.82-4.91-1.43a59.19,59.19,0,0,0-6,2l-6.64,2.21,2.91.78-5.83-6.92c-1.24-1.48-3.82-1-4.71.61-1.34,2.4-4.24,3.27-6.82,2.9a8.08,8.08,0,0,1-4.16-1.65,5.3,5.3,0,0,1-2-3.22c-.63-2.78-4.06-2.59-5.49-.71-3.11,4.09-7.16,9.58-12.66,10.35-3.44.49-8.86-2.28-7.91-6.14.78-3.18-3.91-5.46-5.48-2.31-2.48,5-7.21,10.47-13.32,10.1-4.13-.25-8.88-5.23-6.72-9.27a3,3,0,0,0-5.19-3,26.14,26.14,0,0,1-10.31,9.62,14.43,14.43,0,0,1-2.5.81,1.69,1.69,0,0,1-.84.11H613c-.72,0,0,.06-.48,0a3.38,3.38,0,0,1-1.89-.82c.35.25,0-.05-.1-.09a8.61,8.61,0,0,1-.68-.67,6.39,6.39,0,0,1-.75-1.08c-1.54-2.62-2.13-5.93-2.82-8.85a83.58,83.58,0,0,1-1.82-10.66,90.09,90.09,0,0,1,.33-21.83A88.32,88.32,0,0,1,611.6,184h-5.18c13.92,19.14,13.38,47-.86,65.83a30.72,30.72,0,0,1-7,7.19c-1.2.79-2.7,1.59-4.17,1.17-.55-.15-2.06-.9-2-1.65a3.09,3.09,0,0,0-2.09-3.69c-1.41-.39-3.45.48-3.69,2.09a9.33,9.33,0,0,1-8.13,8.07l3.69,2.1c-1.39-5.86,3.76-12.14,9.71-12.13,3.87,0,3.87-6,0-6Z" transform="translate(-247.61 -120.69)"/><path class="cls-1" d="M671.7,217.07V215.7a2.32,2.32,0,0,0-.26-1.16,2.25,2.25,0,0,0-.62-1,2.13,2.13,0,0,0-1-.62,2.17,2.17,0,0,0-1.15-.26l-.8.11a2.94,2.94,0,0,0-1.32.77l-.47.6a3,3,0,0,0-.41,1.52v1.37a2.17,2.17,0,0,0,.26,1.15,2.13,2.13,0,0,0,.62,1,2.25,2.25,0,0,0,1,.62,2.32,2.32,0,0,0,1.16.26l.8-.11a3,3,0,0,0,1.32-.77l.47-.61a3,3,0,0,0,.41-1.51Z" transform="translate(-247.61 -120.69)"/><path class="cls-1" d="M771.44,222.81c3.86,0,3.87-6,0-6s-3.87,6,0,6Z" transform="translate(-247.61 -120.69)"/></svg>