<?xml version="1.0" encoding="utf-8"?>
<!-- Generator: Adobe Illustrator 27.7.0, SVG Export Plug-In . SVG Version: 6.00 Build 0)  -->
<svg version="1.1" id="Lager_1" xmlns="http://www.w3.org/2000/svg" xmlns:xlink="http://www.w3.org/1999/xlink" x="0px" y="0px"
	 viewBox="0 0 978.4 613.8" style="enable-background:new 0 0 978.4 613.8;" xml:space="preserve">
<style type="text/css">
	.st0{fill:#FFFFFF;}
	.st1{fill:#1E1E1C;}
	.st2{fill:#1F1F1D;}
	.st3{fill:#21211F;}
	.st4{fill:#1D1D1B;}
	.st5{fill:#575755;}
	.st6{fill:#4D4D4B;}
	.st7{fill:#FCFCFC;}
	.st8{fill:#FEFEFE;}
	.st9{fill:#B5B5B4;}
	.st10{fill:#8E8E8D;}
	.st11{fill:#AAAAA9;}
	.st12{fill:#727270;}
	.st13{fill:#E2E2E2;}
	.st14{fill:#F1F1F0;}
	.st15{fill:#2F2F2D;}
	.st16{fill:#262624;}
	.st17{fill:#5F5F5E;}
</style>
<rect x="-1.1" y="-1.7" class="st0" width="979.3" height="610.8"/>
<g>
	<path class="st0" d="M907,524.4c-284.2,0-568.5,0-852.7,0c0-147.4,0-294.9,0-442.3c284.2,0,568.5,0,852.7,0
		C907,229.6,907,377,907,524.4z M753.4,331.1c-6.6-17-13.2-34-19.9-51c-2.1,0-4,0-5.9,0c-1.8,0-1.9,0.1-2.5,1.8
		c-1.5,3.9-3,7.9-4.5,11.8c-1.3,3.2-2.7,6.4-4,9.7c-1.6,4.2-3.2,8.5-4.8,12.7c-1.8,4.6-3.6,9.2-5.4,13.9c-0.2,0.5-0.2,1-0.3,1.5
		c2.4,0,4.6,0,6.8,0c1.7-4.6,3.4-9.1,5-13.6c0.4-1.2,1.1-1.8,2.4-1.7c2.7,0.1,5.4,0,8.1,0c3.9,0,7.8,0,11.7,0
		c0.3,0.6,0.6,1.1,0.8,1.6c1.5,4.1,3,8.1,4.3,12.2c0.4,1.2,0.9,1.7,2.2,1.7c1.8-0.1,3.7-0.1,5.5-0.1
		C753.1,331.4,753.2,331.2,753.4,331.1z M608,331.5c0.1-0.1,0.3-0.3,0.4-0.4c-6.6-16.9-13.2-33.9-19.8-50.8c-2.6,0-5.2,0-7.7,0
		c-3.4,8.6-7,17-10.1,25.5c-3.1,8.6-7,16.9-9.8,25.7c2.5,0,4.8,0,7.1,0c0.4-1.4,0.7-2.7,1.1-3.9c1.2-3.2,2.5-6.3,3.7-9.5
		c0.7-1.9,0.7-1.9,2.7-1.9c6.2,0,12.3,0,18.5,0c0.5,0,0.9,0.1,1.3,0.2c1.7,4.6,3.4,9.1,4.9,13.7c0.4,1.2,0.9,1.7,2.2,1.7
		C604.4,331.5,606.2,331.5,608,331.5z M669.5,295.1c0.8,0,0.6-0.5,0.4-0.9c-0.2-3.7-1.5-7.1-4-9.9c-2-2.2-4.5-3.6-7.2-4.3
		c-6-1.7-12-1.6-17.8,1.1c-6,2.7-8.9,7.6-8.4,14.2c0.1,1,0.1,2.1,0.5,3c1.9,4.5,5.6,6.8,10.1,8c5.2,1.5,10.5,2.5,15.7,4
		c5.1,1.5,7.9,5.1,5.9,11c-1,3-3.6,4.3-6.5,5.2c-2.7,0.8-5.5,0.6-8.3,0.6c-2.5,0-4.6-0.9-6.7-2c-2.3-1.3-4.1-3.1-5-5.6
		c-0.5-1.4-0.8-3-1.2-4.4c-2,0-4.1,0-6.2,0c0,6.1,2.2,10.9,7.1,14.2c3.1,2.1,6.6,3.4,10.4,3.6c4.1,0.2,8.3,0.3,12.3-1.1
		c5.2-1.8,9.4-4.7,11.1-10.5c1.4-5.1-0.4-12.4-6.3-15.2c-2.1-1-4.2-1.8-6.4-2.4c-4.3-1.1-8.6-2-12.9-3c-1.9-0.5-3.5-1.5-4.9-2.7
		c-1.2-1-1.8-2.4-1.9-4c-0.2-3.8,1.9-6.8,5.6-8c4.6-1.6,9.1-1.2,13.4,0.8c2,1,3.6,2.5,4.1,5c0.2,1.3,0.9,2.5,1.3,3.7
		C665.7,295.1,667.6,295.1,669.5,295.1z M309.8,240.7c0-6.7,0-13,0-19.3c0-0.7,0.5-1.5,1-2.1c2.2-2.7,4.4-5.3,6.5-8
		c0.5-0.6,0.9-1.5,0.9-2.3c0.1-5.9,0.1-11.8,0-17.7c0-1.7-0.2-1.9-2-1.9c-2,0-4,0-6,0c-1.7,0-1.9,0.2-1.9,2c0,1.7,0,3.5,0,5.2
		c-1.8,0-3.2,0-4.8,0c0-1.8,0-3.4,0-5c0-2-0.3-2.2-2.2-2.3c-1.9,0-3.8,0-5.8,0c-2.5,0-2.6,0.1-2.6,2.5c0,4.7,0,9.4,0,14.2
		c0,0.7-0.1,1.4-0.1,2.1c-2.7,0-5.2,0-8,0c0-0.9,0-1.7,0-2.5c0-4.7,0-9.4,0-14.2c0-1.8-0.3-2.1-2.1-2.1c-1.9,0-3.8,0-5.8,0
		c-2.7,0-2.7,0-2.7,2.6c0,1.6,0.3,3.2-0.2,4.6c-1.5,0-2.9,0-4.5,0c0-1.9,0-3.6,0-5.4c0-1.5-0.3-1.8-1.8-1.9c-1.8-0.1-3.7,0-5.5,0
		c-2.8,0-2.9,0.1-2.9,2.8c0,4.6,0,9.3,0,13.9c0,0.7-0.1,1.4-0.1,2.1c-2.7,0-5.2,0-7.9,0c0-0.9,0-1.7,0-2.5c0-4.6,0-9.3,0-13.9
		c0-2.1-0.2-2.3-2.4-2.3c-2.1,0-4.2,0-6.2,0c-1.7,0-1.9,0.2-1.9,2c0,1.7,0,3.5,0,5.3c-1.7,0-3.2,0-4.8,0c0-1.9,0-3.6,0-5.4
		c0-1.5-0.3-1.8-1.8-1.9c-1.9-0.1-3.8,0-5.8,0c-2.5,0-2.5,0.1-2.5,2.6c0,4.7,0,9.4,0,14.2c0,0.7-0.1,1.4-0.1,2c-2.7,0-5.3,0-7.9,0
		c0-0.8,0-1.4,0-2.1c0-4.7,0-9.4,0-14.2c0-2.5-0.1-2.5-2.6-2.5c-2,0-4,0-6,0c-1.7,0-1.9,0.2-1.9,2c0,1.7,0,3.5,0,5.2
		c-1.7,0-3.2,0-4.8,0c0-1.9,0-3.6,0-5.4c0-1.5-0.3-1.8-1.8-1.8c-2-0.1-4,0-6,0c-2.2,0-2.3,0.1-2.3,2.3c0,4.9,0,9.8,0,14.6
		c0,0.6-0.1,1.2-0.2,1.8c-2.7,0-5.2,0-7.9,0c0-0.8,0-1.4,0-2c0-4.9,0-9.8,0-14.6c0-1.9-0.2-2.1-2.1-2.1c-1.9,0-3.8,0-5.8,0
		c-2.2,0-2.3,0.1-2.3,2.3c0,1.7,0,3.3,0,5c-1.8,0-3.3,0-4.9,0c0-1.9,0-3.7,0-5.4c0-1.6-0.2-1.8-1.8-1.8c-2.1-0.1-4.2,0-6.2,0
		c-2,0-2.2,0.2-2.2,2.2c0,5.7,0,11.4,0,17c0,1.1,0.3,2,1,2.8c2.2,2.6,4.4,5.3,6.6,7.9c0.7,0.8,1,1.7,1,2.8c0,5.7,0,11.4,0,17
		c0,0.5-0.1,0.9-0.1,1.4c-0.5,0-0.9,0.1-1.3,0.1c-3.9-0.1-3.8-0.1-3.8,3.8c0,38.2,0,76.4,0,114.6c0,6.5-0.1,13,0,19.4
		c0.1,4.3,0.4,8.5,2.3,12.4c4.9,10.1,12.8,15.4,24,15.4c9.9,0,19.8-0.1,29.7,0c3.5,0,6.9,0.3,10.3,1.4c3.9,1.4,7.1,3.5,8.8,7.5
		c0.2,0.4,0.7,1,1.1,1c0.4,0,1-0.5,1.2-0.9c2.1-5,6.1-7.3,11-8.2c3.1-0.6,6.3-0.8,9.4-0.8c9.5-0.1,19,0,28.5-0.1
		c1.9,0,3.8-0.2,5.6-0.6c4.6-0.9,8.7-3,12.1-6.2c5.8-5.4,8.2-12.3,8.3-20c0.1-45.3,0-90.7,0-136c0-0.5,0-1,0-1.4
		c0-1-0.5-1.5-1.4-1.5C312.4,240.7,311.2,240.7,309.8,240.7z M550.5,280.2c0,13.6,0,27.2,0,40.7c-0.2,0.1-0.3,0.1-0.5,0.2
		c-8.8-13.6-17.7-27.2-26.6-40.9c-2.4,0-4.9-0.2-7.3,0.2c0,17.2,0,34.1,0,51.1c2.2,0,4.2,0,6.2,0c0.1-0.2,0.2-0.3,0.2-0.4
		c0-13.3,0.1-26.5,0.1-39.8c0-0.1,0.1-0.1,0.1-0.2c0.1,0,0.1-0.1,0.3-0.1c0.4,0.6,0.8,1.2,1.2,1.8c4.8,7.3,9.5,14.6,14.3,21.9
		c3.4,5.2,6.7,10.3,10.1,15.4c0.4,0.6,1.1,1.4,1.7,1.4c2.2,0.2,4.4,0.1,6.7,0.1c0-17.3,0-34.2,0-51.3
		C554.8,280.2,552.8,280.2,550.5,280.2z M757.7,331.6c0.7,0,1.1,0,1.6,0c5.6,0,11.2,0.1,16.8,0c2.6-0.1,5.3-0.4,7.8-1
		c6-1.5,10.6-4.9,13.2-10.5c1.4-3.1,2.1-6.4,2.6-9.7c0.5-3.5,0.4-7,0-10.5c-0.4-3.2-1.1-6.2-2.5-9c-2.6-5.2-7.2-8.2-12.7-9.6
		c-3-0.7-6.1-1-9.1-1.1c-5.2-0.2-10.4-0.1-15.6,0c-0.6,0-1.2,0.1-1.9,0.1C757.7,297.3,757.7,314.3,757.7,331.6z M444.6,332.7
		c11.8,0.5,19.5-6.4,22.6-13.6c1.7-3.8,2.4-7.9,2.7-12c0.3-4.4-0.6-8.7-2.1-13c-2.4-6.5-6.7-11-13-13.5c-1.8-0.7-3.9-0.9-5.8-1.3
		c-3.9-0.9-7.9-0.5-11.6,0.7c-9.7,3.2-14.7,10.6-16.4,20.2c-0.9,5.1-0.7,10.3,1,15.3c1.3,3.8,3,7.4,5.9,10.2c2.2,2,4.6,4,7.3,5.3
		C438.2,332.4,441.6,333,444.6,332.7z M375.9,314.6c-0.3,3-0.2,4,0.8,6.7c2.7,7,8.8,10.4,15.7,11.2c2.7,0.3,5.4,0.2,8.1,0
		c4.3-0.4,8.2-1.8,11.6-4.5c7-5.5,7.3-18.6-3.5-23c-5-2-10.2-3-15.4-4.1c-2.3-0.5-4.4-1.3-6.4-2.6c-2.1-1.5-2.9-3.5-2.6-6
		c0.4-3.6,2.6-6.2,7.2-7.2c3.5-0.7,6.8-0.5,10.2,0.8c2.9,1.1,4.7,2.8,5.8,5.5c0.4,1.1,0.6,2.4,0.8,3.6c2.1,0,4.2,0,6.6,0
		c-0.2-1.1-0.5-2.1-0.6-3.1c-0.5-4.4-2.8-7.8-6.5-10.2c-2.6-1.7-5.6-2.4-8.6-2.7c-5.5-0.6-10.8,0.1-15.6,3.1
		c-5.1,3.2-7.9,9.5-6.2,15.1c1.5,4.9,5.6,7.5,10.3,8.9c5.6,1.7,11.4,2.4,16.9,4.4c3.9,1.4,5.9,4.3,5.4,8.5c-0.4,3.3-2.2,5.5-5.2,6.6
		c-5.3,2-10.7,2-16-0.3c-3-1.3-5-3.6-6.1-6.8c-0.4-1.2-0.7-2.5-1-3.8C379.8,314.6,377.9,314.6,375.9,314.6z M689.8,285.9
		c0,15.1,0,29.9,0,44.7c0,0.2,0,0.3,0.1,0.5c0,0.1,0.1,0.1,0.1,0.2c0.1,0.1,0.1,0.1,0.1,0.1c2.2,0,4.3,0,6.6,0c0-15.2,0-30.3,0-45.5
		c5.8,0,11.3,0,16.9,0c0-2,0-3.8,0-5.6c-13.7,0-27.2,0-40.8,0c0,1.9,0,3.7,0,5.7C678.6,285.9,684,285.9,689.8,285.9z M476.9,280.2
		c-0.5,8.8-0.2,49.2,0.3,51.1c11.2,0,22.4,0,33.7,0c0-1.9,0-3.6,0-5.6c-9.1,0-18,0-27.2,0c0-15.3,0-30.4,0-45.5
		C481.3,280.2,479.2,280.2,476.9,280.2z"/>
	<path class="st1" d="M309.8,240.7c1.4,0,2.5,0,3.6,0c1,0,1.5,0.5,1.4,1.5c0,0.5,0,1,0,1.4c0,45.3,0,90.7,0,136
		c0,7.7-2.5,14.6-8.3,20c-3.4,3.2-7.5,5.3-12.1,6.2c-1.8,0.4-3.8,0.5-5.6,0.6c-9.5,0.1-19,0-28.5,0.1c-3.2,0-6.3,0.3-9.4,0.8
		c-4.9,0.9-9,3.2-11,8.2c-0.2,0.4-0.8,0.9-1.2,0.9c-0.4,0-0.9-0.5-1.1-1c-1.7-4-4.8-6.1-8.8-7.5c-3.3-1.1-6.8-1.4-10.3-1.4
		c-9.9-0.1-19.8,0-29.7,0c-11.3,0-19.2-5.4-24-15.4c-1.9-4-2.2-8.2-2.3-12.4c-0.1-6.5,0-13,0-19.4c0-38.2,0-76.4,0-114.6
		c0-3.9-0.1-3.9,3.8-3.8c0.4,0,0.8-0.1,1.3-0.1c0-0.5,0.1-1,0.1-1.4c0-5.7,0-11.4,0-17c0-1.1-0.3-2-1-2.8c-2.2-2.6-4.4-5.3-6.6-7.9
		c-0.7-0.8-1-1.7-1-2.8c0-5.7,0-11.4,0-17c0-2,0.2-2.2,2.2-2.2c2.1,0,4.2,0,6.2,0c1.6,0,1.8,0.2,1.8,1.8c0,1.8,0,3.5,0,5.4
		c1.6,0,3.1,0,4.9,0c0-1.6,0-3.3,0-5c0-2.2,0.1-2.3,2.3-2.3c1.9,0,3.8,0,5.8,0c1.8,0,2.1,0.3,2.1,2.1c0,4.9,0,9.8,0,14.6
		c0,0.6,0,1.2,0,2c2.7,0,5.2,0,7.9,0c0.1-0.6,0.2-1.2,0.2-1.8c0-4.9,0-9.8,0-14.6c0-2.2,0.1-2.3,2.3-2.3c2,0,4,0,6,0
		c1.6,0,1.8,0.3,1.8,1.8c0,1.7,0,3.5,0,5.4c1.6,0,3.1,0,4.8,0c0-1.8,0-3.5,0-5.2c0-1.7,0.2-1.9,1.9-2c2,0,4,0,6,0
		c2.5,0,2.6,0.1,2.6,2.5c0,4.7,0,9.4,0,14.2c0,0.6,0,1.3,0,2.1c2.6,0,5.2,0,7.9,0c0-0.6,0.1-1.3,0.1-2c0-4.7,0-9.4,0-14.2
		c0-2.5,0.1-2.6,2.5-2.6c1.9,0,3.8,0,5.8,0c1.5,0,1.8,0.3,1.8,1.9c0,1.7,0,3.5,0,5.4c1.6,0,3.1,0,4.8,0c0-1.8,0-3.5,0-5.3
		c0-1.7,0.2-1.9,1.9-2c2.1,0,4.2,0,6.2,0c2.2,0,2.3,0.2,2.4,2.3c0,4.6,0,9.3,0,13.9c0,0.8,0,1.6,0,2.5c2.6,0,5.2,0,7.9,0
		c0-0.7,0.1-1.4,0.1-2.1c0-4.6,0-9.3,0-13.9c0-2.7,0.1-2.8,2.9-2.8c1.8,0,3.7,0,5.5,0c1.5,0,1.8,0.3,1.8,1.9c0.1,1.7,0,3.5,0,5.4
		c1.6,0,3,0,4.5,0c0.6-1.5,0.2-3.1,0.2-4.6c0.1-2.6,0-2.6,2.7-2.6c1.9,0,3.8,0,5.8,0c1.8,0,2.1,0.3,2.1,2.1c0,4.7,0,9.4,0,14.2
		c0,0.8,0,1.6,0,2.5c2.7,0,5.2,0,8,0c0-0.7,0.1-1.4,0.1-2.1c0-4.7,0-9.4,0-14.2c0-2.5,0.1-2.5,2.6-2.5c1.9,0,3.8,0,5.8,0
		c1.9,0,2.2,0.3,2.2,2.3c0,1.6,0,3.2,0,5c1.6,0,3,0,4.8,0c0-1.7,0-3.5,0-5.2c0-1.8,0.2-2,1.9-2c2,0,4,0,6,0c1.8,0,2,0.2,2,1.9
		c0,5.9,0,11.8,0,17.7c0,0.8-0.4,1.7-0.9,2.3c-2.1,2.7-4.4,5.3-6.5,8c-0.5,0.6-1,1.4-1,2.1C309.8,227.7,309.8,234,309.8,240.7z
		 M192.6,273c-0.1,0-0.3-0.1-0.4-0.1c0.1,0.1,0.2,0.2,0.3,0.3c0.2,0.3,0.4,0.7,0.7,1c6.8,9.5,13.9,18.8,20.4,28.6
		c-1-0.1-1.8-0.5-2.7-0.8c-2.4-0.6-4.8-1.1-7.2-1.5c-1.7-0.3-3.4-0.4-5.1-0.7c-2.2-0.4-3.9-1.7-5.5-3c-1.6-1.3-3.2-2.3-5.2-2.8
		c-2.9-0.7-6.1,0.4-7.9,3c0.5,0.2,1,0.5,1.5,0.6c3.4,0.6,5.9,2.6,8.1,5.1c0.8,1,1.6,2,2.6,2.8c1.3,1.1,2.6,2.5,4.1,3.1
		c2.1,0.9,4.5,1.3,6.8,2c2.2,0.7,4.3,1.6,6.1,3.2c-1.4,0.5-2.8,0.9-4.1,1.1c-2.2,0.3-4.3,0.6-6.5,0.9c-2.8,0.5-5.6,1-8.4,1.4
		c-2,0.3-4.1,0.3-6.1,0.6c-3,0.4-5.9,0.9-8.9,1.4c-0.6,0.1-1.2,0.4-1.8,0.5c0,0.2,0,0.3,0,0.5c11.7,1.8,23.5,3.6,35.8,5.5
		c-1,0.6-1.6,0.9-2.2,1.2c-2.9,1.9-5.9,3.5-8.5,5.7c-2.9,2.4-6.1,3.6-9.7,3.7c-4.4,0.2-9,4.7-7.6,9.1c1.1-0.5,2.1-1.1,3.1-1.6
		c0.6-0.3,1.3-0.7,1.9-0.7c2.4-0.2,4.8-0.5,7.1-0.3c4.1,0.3,7.8-0.6,11.4-2.7c2-1.2,4.3-2.1,6.4-3c0.7-0.3,1.6-0.2,2.9-0.3
		c-7.4,10.1-14.4,19.7-21.5,29.2c-0.3,0.3-0.5,0.6-0.8,0.9c0.1,0.1,0.2,0.2,0.2,0.3c0.3-0.3,0.6-0.5,0.9-0.8c1-0.7,1.9-1.4,2.9-2.1
		c7.9-5.7,15.7-11.5,23.6-17.2c0.6-0.5,1.2-1.3,2.2-1.1c0.1,0.3,0.2,0.5,0.1,0.6c-1.2,3.9-2.4,7.8-2.5,12c0,2.5-0.9,4.8-2.6,6.8
		c-0.6,0.7-1.1,1.4-1.6,2.1c-1.7,2.2-2.4,4.7-1.9,7.4c0.4,1.8,1.4,3.3,3.1,4.6c0.4-3.2,2-6.3,4.3-8.6c1.4-1.4,3-2.6,4.3-4.1
		c1.1-1.2,2.2-2.6,2.8-4.1c0.9-2.1,1.4-4.3,2-6.5c0.6-2.3,1.8-4.3,3.4-6.7c1.3,6.4,1.9,12.3,3,18.2c1.1,5.9,1.5,11.8,3.1,17.6
		c0.6-2.1,0.9-4.2,1.3-6.2c0.2-1.4,0.3-2.8,0.5-4.2c0.3-2.4,0.7-4.8,1.1-7.1c0.4-2.5,0.9-4.9,1.3-7.4c0.5-3.1,1-6.3,1.5-9.4
		c0.3,0,0.5,0,0.8-0.1c1.8,3.9,4.1,7.4,6.9,10.6c1.2,1.3,2.1,2.8,2.4,4.6c0.3,2,0.8,4,1.2,6c0.7,4.1,5.4,7,8.9,6.2
		c-0.5-0.9-1-1.7-1.4-2.5c-0.4-0.8-1-1.7-1.1-2.5c-0.2-2.3-0.5-4.6-0.3-6.9c0.4-4.4-0.5-8.3-2.9-12c-1.7-2.6-3-5.5-3.8-9.1
		c1,0.5,1.7,0.7,2.3,1.2c2.9,2,5.7,4.2,8.5,6.2c5.9,4.3,11.9,8.6,17.8,13c0,0.1,0.1,0.2,0.2,0.2c0.4,0.4,0.9,0.9,1.3,1.3
		c0.1-0.1,0.3-0.2,0.4-0.4c-0.4-0.5-0.8-1-1.2-1.5c0-0.1-0.1-0.2-0.2-0.2c-0.3-0.4-0.5-0.8-0.8-1.2c-6.1-8.4-12.3-16.8-18.4-25.2
		c-0.3-0.3-0.5-0.7-0.9-1.3c0.7,0.1,1.1,0.1,1.4,0.3c3.1,1.2,6.3,2,9.5,2.1c3.8,0.1,7.2,1,10.1,3.6c0.4,0.4,0.9,0.7,1.3,1
		c2,1.8,4.4,2.1,6.9,1.6c1.8-0.4,3.5-1.1,4.6-3.1c-1.1-0.2-1.9-0.2-2.6-0.5c-2.8-1.3-5.3-2.9-7.3-5.3c-0.8-1.1-1.8-2-2.8-3
		c-2-2-4.5-3.3-7.3-3.8c-3.6-0.7-6.9-2.3-10-4.2c0.6-0.2,1-0.5,1.4-0.6c3.5-0.5,7-1.1,10.5-1.6c3.6-0.5,7.2-1,10.7-1.5
		c4.2-0.6,8.4-1.3,12.6-1.9c0.4-0.1,0.7-0.4,1-0.6c-1-0.4-2-0.2-2.9-0.4c-3.5-0.6-7-1.3-10.6-1.9c-3.5-0.5-7-0.9-10.5-1.4
		c-3-0.4-6-0.9-9-1.4c-0.8-0.1-1.7-0.5-2.9-0.9c4.7-1.9,8.5-4.5,11.9-7.5c1.9-1.6,4.1-2.5,6.7-2.7c1.8-0.1,3.6-0.5,5.3-1.2
		c3.4-1.4,4.7-4.3,4.9-7.8c0-0.2-0.1-0.4-0.1-0.6c-0.3,0.1-0.6,0.3-0.8,0.4c-3.5,2.2-7.3,2.8-11.3,2.4c-4.5-0.5-8.5,0.4-12.2,3
		c-2.6,1.8-5.6,2.9-9.1,3.4c0.6-0.9,1-1.5,1.5-2.2c6.1-8.2,12.1-16.5,18.2-24.7c0.6-0.8,1.4-1.6,1.6-3.2c-2.2,1.7-4.1,3.1-6,4.5
		c-1.9,1.4-3.9,2.8-5.8,4.2c-1.9,1.4-3.7,2.7-5.6,4.1c-1.9,1.4-3.9,2.8-5.8,4.2c-1.9,1.4-3.7,2.8-5.8,3.9c1.5-3.9,2.3-7.9,2.6-11.9
		c0.3-3.3,1.2-6.2,3.4-8.7c0.6-0.7,1.2-1.5,1.7-2.3c1.2-1.9,1.6-4,1.1-6.2c-0.4-1.9-1.2-3.5-3.2-4.7c-0.7,5-3.4,8.3-6.9,11.1
		c-0.8,0.6-1.6,1.3-2.2,2.2c-1.2,1.9-2.5,3.8-3.4,5.9c-0.8,1.9-1,4.1-1.7,6c-0.6,1.7-1.3,3.4-2.9,4.8c-0.5-2.5-0.9-4.8-1.3-7
		c-0.5-3.2-1-6.5-1.4-9.8c-0.7-4.6-1.2-9.2-1.9-13.8c-0.2-1.6-0.7-3.2-1.1-4.8c-0.2,0-0.3,0-0.5,0c-1.8,11.5-3.6,23-5.4,34.5
		c-0.2-0.1-0.4-0.1-0.4-0.3c-1.9-4.3-4.5-8.1-7.5-11.6c-2-2.3-2.9-5.1-2.8-8.2c0-3.4-1.9-6.2-5-7.5c-1.3-0.5-2.6-0.9-4.1-0.5
		c2.5,3.9,3.2,7.9,2.8,12.2c-0.4,4.5,0.5,8.5,3.1,12.2c1.8,2.6,2.5,5.6,3.4,9.1c-1-0.7-1.7-1.2-2.3-1.6
		c-8.8-6.5-17.7-12.9-26.5-19.4C193.6,273.6,193.1,273.3,192.6,273z M170.4,232.4c-0.1,0.1-0.3,0.3-0.4,0.4c0,2.4,0,4.8,0,7.2
		c0.1,0.2,0.3,0.4,0.4,0.6c0.3,0.1,0.6,0.1,0.9,0.1c10,0,20,0,29.9,0c0.4,0,0.7-0.1,1.1-0.1c0-2.8,0-5.5,0-8.3c-5.5,0-10.8,0-16.2,0
		C181,232.3,175.7,232.3,170.4,232.4z M205.5,232.4c-0.1,0.1-0.3,0.3-0.4,0.4c0,2.4,0,4.8,0,7.2c0.1,0.2,0.3,0.4,0.4,0.6
		c0.7,0.1,1.4,0.2,2.1,0.2c19.9,0,39.7,0,59.6,0c0.7,0,1.4-0.1,2.1-0.2c0.1-0.2,0.3-0.4,0.4-0.6c0-2.4,0-4.8,0-7.2
		c-0.1-0.1-0.3-0.3-0.4-0.4c-0.6,0-1.3-0.1-1.9-0.1c-20,0-40,0-60,0C206.7,232.3,206.1,232.3,205.5,232.4z M240.5,229.8
		c0.3,0,0.6,0.1,1,0.1c21.5,0,43,0,64.5,0c0.5,0,0.9-0.1,1.4-0.1c0-2.8,0-5.5,0-8.1c-3.5-0.5-65.7-0.3-67.4,0.2c0,2.5,0,5.1,0,7.6
		C240.2,229.5,240.3,229.7,240.5,229.8z M237.4,221.6c-22.5,0-44.9,0-67.3,0c0,2.8,0,5.5,0,8.2c22.5,0,44.9,0,67.3,0
		C237.4,227,237.4,224.3,237.4,221.6z M261.7,191.7c0,5.7,0,11.1,0,16.5c0,0.6,0.3,1.4,0.8,1.9c2.1,2.6,4.3,5.1,6.5,7.7
		c1.4,1.6,5.1,1.6,6.6-0.1c2-2.4,4-4.8,6.1-7.1c0.8-0.9,1.1-1.8,1.1-3c-0.1-4.7,0-9.4,0-14.1c0-0.6-0.1-1.2-0.2-1.8
		c-2,0-3.8,0-5.8,0c0,1.9,0,3.6,0,5.4c0,1.7-0.3,2-1.9,2c-1.7,0.1-3.4,0-5,0c-2.2,0-2.3-0.2-2.4-2.3c0-1.7,0-3.3,0-5.1
		C265.4,191.7,263.7,191.7,261.7,191.7z M295.6,191.7c-0.1,0.3-0.2,0.4-0.2,0.5c0,5.3-0.1,10.7,0,16c0,0.7,0.5,1.5,0.9,2.1
		c1.6,2.1,3.5,3.9,5.1,6.1c1.4,2,3.1,2.7,5.4,2.5c0.9-0.1,1.6-0.3,2.2-1c2.1-2.5,4.1-5.1,6.3-7.5c0.7-0.8,0.8-1.6,0.8-2.6
		c0-4.8,0-9.6,0-14.4c0-0.5-0.1-1.1-0.2-1.6c-1.8,0-3.4,0-5.3,0c0,1.8,0,3.6,0,5.3c0,1.8-0.2,2-2.1,2.1c-1.7,0-3.4,0-5,0
		c-1.9,0-2.1-0.3-2.2-2.2c0-1.7-0.1-3.4-0.1-5.1C299.2,191.7,297.4,191.7,295.6,191.7z M228.3,191.7c-0.1,0.4-0.2,0.7-0.2,1
		c0,5.1-0.1,10.2,0,15.3c0,0.9,0.5,1.8,1.1,2.5c1.6,2.1,3.5,3.9,5.1,6.1c1.3,1.8,2.8,2.6,5,2.3c1.2-0.1,2.1-0.4,2.8-1.4
		c1.9-2.4,3.9-4.7,5.9-6.9c0.8-0.9,1.1-1.8,1.1-3c-0.1-4.7,0-9.4,0-14.1c0-0.6-0.1-1.2-0.2-1.8c-2,0-3.8,0-5.7,0c0,1.9,0,3.6,0,5.4
		c0,1.6-0.3,1.9-2,2c-1.4,0-2.7,0-4.1,0c-3.4,0-3.4,0-3.4-3.3c0-1.4,0-2.8-0.1-4.1C231.7,191.7,230.1,191.7,228.3,191.7z
		 M194.9,191.7c-0.1,0.4-0.2,0.5-0.2,0.7c0,5.3-0.1,10.6,0,15.8c0,0.8,0.5,1.7,1,2.3c1.6,2.1,3.6,3.9,5.1,6.1c1.4,2,3,2.6,5.3,2.4
		c1-0.1,1.8-0.3,2.4-1.1c2-2.5,4.1-4.9,6.2-7.3c0.7-0.8,0.9-1.6,0.9-2.6c0-5,0-9.9,0-14.9c0-0.4-0.1-0.9-0.2-1.3c-2,0-3.8,0-5.7,0
		c0,1.8,0,3.5,0,5.2c0,1.8-0.3,2.1-2.1,2.2c-1.8,0-3.5,0-5.3,0c-1.8,0-2.1-0.3-2.1-2.1c0-1.7,0-3.5,0-5.3
		C198.3,191.7,196.6,191.7,194.9,191.7z M176.3,191.7c0,2.4,0,4.7,0,7.1c-1,0.1-1.6,0.3-2.3,0.3c-1.5,0-3,0-4.6,0
		c-2.2,0-2.4-0.2-2.4-2.5c0-1.6-0.1-3.3-0.1-4.9c-2,0-3.8,0-5.5,0c-0.1,0.3-0.2,0.4-0.2,0.6c0,5.4-0.1,10.7,0,16.1
		c0,0.7,0.4,1.5,0.9,2.1c1.9,2.4,3.9,4.8,6,7.2c1.5,1.8,5.2,1.8,6.7,0.1c2.1-2.4,4.1-4.9,6.2-7.3c0.7-0.8,0.9-1.6,0.9-2.6
		c0-4.9,0-9.8,0-14.6c0-0.5-0.1-1-0.2-1.5C179.9,191.7,178.2,191.7,176.3,191.7z M307.4,232.4c-11.7,0-23.4,0-35.1,0
		c0,2.8,0,5.5,0,8.1c11.8,0,23.4,0,35.1,0C307.4,237.7,307.4,235.1,307.4,232.4z M300.5,218.9c-2-2.4-3.8-4.3-5.4-6.4
		c-1.1-1.4-2.3-2-4-1.8c-2.1,0.2-4.6-0.4-6.4,0.4c-1.7,0.8-2.8,2.9-4.2,4.5c-0.9,1-1.8,2.1-2.9,3.4
		C285.4,218.9,292.7,218.9,300.5,218.9z M177,218.7c3.5,0.5,20.7,0.4,22.5-0.2c-2.1-2.5-4.1-4.9-6.2-7.3c-0.4-0.4-1.1-0.6-1.7-0.6
		c-2.2-0.1-4.3,0-6.5,0c-0.9,0-1.5,0.3-2,1C181.1,213.9,179.2,216.2,177,218.7z M266.9,218.9c-2.4-2.8-4.4-5.3-6.5-7.7
		c-0.4-0.4-1.1-0.6-1.7-0.6c-2.1-0.1-4.2,0-6.2,0c-1,0-1.6,0.3-2.2,1.1c-1.6,2-3.3,3.9-5,5.9c-0.3,0.4-0.6,0.8-0.9,1.4
		C251.8,218.9,259.1,218.9,266.9,218.9z M210.5,218.8c6,0.5,20.6,0.3,22.5-0.3c-2.1-2.5-4.1-4.9-6.2-7.3c-0.3-0.4-0.9-0.6-1.4-0.6
		c-2.2-0.1-4.5-0.1-6.7,0c-0.6,0-1.3,0.3-1.7,0.7C214.9,213.7,212.8,216.1,210.5,218.8z"/>
	<path class="st2" d="M550.5,280.2c2.3,0,4.3,0,6.5,0c0,17.1,0,34.1,0,51.3c-2.3,0-4.5,0.1-6.7-0.1c-0.6,0-1.3-0.8-1.7-1.4
		c-3.4-5.1-6.7-10.3-10.1-15.4c-4.8-7.3-9.5-14.6-14.3-21.9c-0.4-0.6-0.8-1.2-1.2-1.8c-0.1,0.1-0.2,0.1-0.3,0.1
		c-0.1,0-0.1,0.1-0.1,0.2c0,13.3-0.1,26.5-0.1,39.8c0,0.1-0.1,0.1-0.2,0.4c-2,0-4,0-6.2,0c0-17,0-33.9,0-51.1
		c2.4-0.4,4.8-0.1,7.3-0.2c8.9,13.7,17.8,27.3,26.6,40.9c0.2-0.1,0.3-0.1,0.5-0.2C550.5,307.4,550.5,293.9,550.5,280.2z"/>
	<path class="st2" d="M757.7,331.6c0-17.3,0-34.2,0-51.3c0.7-0.1,1.3-0.1,1.9-0.1c5.2,0,10.4-0.1,15.6,0c3.1,0.1,6.2,0.4,9.1,1.1
		c5.5,1.3,10.1,4.3,12.7,9.6c1.4,2.8,2.1,5.8,2.5,9c0.4,3.5,0.5,7,0,10.5c-0.5,3.3-1.2,6.6-2.6,9.7c-2.6,5.7-7.2,9.1-13.2,10.5
		c-2.5,0.6-5.2,0.9-7.8,1c-5.6,0.1-11.2,0-16.8,0C758.8,331.6,758.4,331.6,757.7,331.6z M765,286c-0.1,0.2-0.3,0.3-0.4,0.5
		c0,0.3-0.1,0.6-0.1,1c0,12.1,0,24.3,0,36.4c0,0.5,0.1,1.1,0.1,2c4.8-0.1,9.5,0,14.2-0.4c6.3-0.6,10.8-4.2,12.8-10.3
		c0.7-2.1,1.1-4.3,1.3-6.5c0.6-4.8,0-9.5-1.6-14c-1.1-3.2-3.4-5.5-6.5-7c-2.3-1.1-4.8-1.5-7.3-1.6C773.3,285.8,769.1,286,765,286z"
		/>
	<path class="st3" d="M444.6,332.7c-3,0.3-6.3-0.3-9.3-1.7c-2.7-1.2-5.1-3.2-7.3-5.3c-2.9-2.7-4.7-6.3-5.9-10.2
		c-1.6-5-1.9-10.3-1-15.3c1.7-9.6,6.7-17,16.4-20.2c3.7-1.2,7.6-1.6,11.6-0.7c1.9,0.4,4,0.6,5.8,1.3c6.3,2.6,10.6,7.1,13,13.5
		c1.6,4.2,2.4,8.5,2.1,13c-0.2,4.1-1,8.2-2.7,12C464,326.3,456.3,333.2,444.6,332.7z M445.9,326.9c7.1,0.3,12.6-4.4,15-10.4
		c2.7-6.8,2.9-13.8,0.2-20.7c-1.9-4.7-4.8-8.1-9.8-10c-7.1-2.7-16.1-0.4-20.3,6.6c-2.1,3.5-3.2,7.2-3.4,11.2
		c-0.2,5.2,0.2,10.2,3,14.8C433.8,323.9,438.4,326.9,445.9,326.9z"/>
	<path class="st3" d="M375.9,314.6c2,0,3.9,0,5.8,0c0.3,1.3,0.6,2.6,1,3.8c1,3.1,3.1,5.4,6.1,6.8c5.3,2.4,10.7,2.3,16,0.3
		c3-1.1,4.8-3.3,5.2-6.6c0.5-4.1-1.5-7.1-5.4-8.5c-5.5-2-11.3-2.7-16.9-4.4c-4.7-1.4-8.8-4-10.3-8.9c-1.7-5.6,1.1-11.9,6.2-15.1
		c4.8-3,10.1-3.7,15.6-3.1c3,0.3,6,1,8.6,2.7c3.7,2.4,5.9,5.7,6.5,10.2c0.1,1,0.4,2,0.6,3.1c-2.4,0-4.5,0-6.6,0
		c-0.3-1.2-0.4-2.5-0.8-3.6c-1.1-2.7-2.9-4.5-5.8-5.5c-3.4-1.3-6.8-1.5-10.2-0.8c-4.6,1-6.8,3.6-7.2,7.2c-0.3,2.5,0.5,4.6,2.6,6
		c1.9,1.3,4.1,2.1,6.4,2.6c5.2,1.1,10.5,2.1,15.4,4.1c10.8,4.3,10.5,17.4,3.5,23c-3.4,2.7-7.3,4.2-11.6,4.5c-2.7,0.2-5.5,0.3-8.1,0
		c-6.9-0.8-13-4.2-15.7-11.2C375.7,318.6,375.6,317.6,375.9,314.6z"/>
	<path class="st3" d="M669.5,295.1c-1.9,0-3.8,0-5.8,0c-0.5-1.2-1.1-2.4-1.3-3.7c-0.5-2.5-2.1-4-4.1-5c-4.3-2.1-8.8-2.4-13.4-0.8
		c-3.7,1.3-5.7,4.3-5.6,8c0.1,1.6,0.6,3,1.9,4c1.4,1.2,3.1,2.3,4.9,2.7c4.3,1,8.7,1.9,12.9,3c2.2,0.6,4.4,1.4,6.4,2.4
		c5.9,2.8,7.7,10.1,6.3,15.2c-1.6,5.8-5.8,8.6-11.1,10.5c-4,1.4-8.1,1.3-12.3,1.1c-3.8-0.2-7.3-1.5-10.4-3.6
		c-5-3.3-7.1-8.1-7.1-14.2c2.1,0,4.2,0,6.2,0c0.4,1.4,0.7,3,1.2,4.4c0.9,2.5,2.7,4.4,5,5.6c2.1,1.1,4.2,2,6.7,2
		c2.8,0,5.6,0.2,8.3-0.6c2.9-0.8,5.5-2.1,6.5-5.2c2-5.9-0.8-9.5-5.9-11c-5.2-1.5-10.5-2.5-15.7-4c-4.4-1.2-8.2-3.5-10.1-8
		c-0.4-0.9-0.4-2-0.5-3c-0.4-6.6,2.4-11.5,8.4-14.2c5.8-2.6,11.8-2.8,17.8-1.1c2.7,0.8,5.3,2.1,7.2,4.3c2.5,2.9,3.7,6.2,4,9.9
		C669.8,294.5,669.6,294.8,669.5,295.1z"/>
	<path class="st2" d="M608,331.5c-1.8,0-3.7,0-5.5,0.1c-1.2,0-1.8-0.5-2.2-1.7c-1.5-4.5-3.2-9-4.9-13.7c-0.4,0-0.9-0.1-1.3-0.2
		c-6.2,0-12.3,0-18.5,0c-2,0-2,0.1-2.7,1.9c-1.2,3.2-2.5,6.3-3.7,9.5c-0.5,1.2-0.8,2.5-1.1,3.9c-2.3,0-4.5,0-7.1,0
		c2.8-8.8,6.6-17.1,9.8-25.7c3.1-8.5,6.7-16.9,10.1-25.5c2.5,0,5.1,0,7.7,0c6.6,16.9,13.2,33.9,19.8,50.8
		C608.3,331.2,608.2,331.4,608,331.5z M584.6,286.2c-2.9,8.2-5.9,15.9-8.6,23.9c5.9,0,11.4,0,17.1,0
		C590.3,302.2,587.6,294.5,584.6,286.2z"/>
	<path class="st2" d="M753,331.5c-1.8,0-3.7,0-5.5,0.1c-1.2,0-1.8-0.5-2.2-1.7c-1.4-4.1-2.9-8.2-4.3-12.2c-0.2-0.5-0.5-1-0.8-1.6
		c-3.9,0-7.8,0-11.7,0c-2.7,0-5.4,0.1-8.1,0c-1.4,0-2,0.5-2.4,1.7c-1.6,4.5-3.3,9-5,13.6c-2.2,0-4.4,0-6.8,0c0.1-0.5,0.1-1,0.3-1.5
		c1.8-4.6,3.6-9.2,5.4-13.9c1.6-4.2,3.2-8.5,4.8-12.7c1.3-3.2,2.7-6.4,4-9.7c1.5-3.9,3-7.8,4.5-11.8c0.6-1.7,0.7-1.8,2.5-1.8
		c1.9,0,3.8,0,5.9,0c6.6,17,13.2,34,19.9,51C753.2,331.2,753.1,331.4,753,331.5z M738.1,310.1c-2.8-7.9-5.6-15.6-8.5-23.8
		c-2.9,7.7-5.5,14.9-8.2,22.1c-0.2,0.5-0.1,1-0.2,1.7C726.9,310.1,732.4,310.1,738.1,310.1z"/>
	<path class="st4" d="M689.8,285.9c-5.8,0-11.2,0-16.9,0c0-2,0-3.7,0-5.7c13.5,0,27.1,0,40.8,0c0,1.8,0,3.6,0,5.6
		c-5.6,0-11.1,0-16.9,0c0,15.3,0,30.3,0,45.5c-2.4,0-4.5,0-6.6,0c0,0-0.1-0.1-0.1-0.1c-0.1-0.1-0.1-0.1-0.1-0.2
		c0-0.2-0.1-0.3-0.1-0.5C689.8,315.8,689.8,301.1,689.8,285.9z"/>
	<path class="st4" d="M476.9,280.2c2.3,0,4.4,0,6.7,0c0,15.1,0,30.2,0,45.5c9.2,0,18.2,0,27.2,0c0,2,0,3.7,0,5.6
		c-11.3,0-22.5,0-33.7,0C476.7,329.5,476.4,289,476.9,280.2z"/>
	<path class="st5" d="M669.5,295.1c0.1-0.3,0.3-0.6,0.4-0.9C670.1,294.7,670.3,295.1,669.5,295.1z"/>
	<path class="st6" d="M608,331.5c0.1-0.1,0.3-0.3,0.4-0.4C608.3,331.2,608.2,331.4,608,331.5z"/>
	<path class="st6" d="M753,331.5c0.1-0.1,0.3-0.3,0.4-0.4C753.2,331.2,753.1,331.4,753,331.5z"/>
	<path class="st7" d="M245,350.9c-0.5,3.1-1,6.3-1.5,9.4c-0.4,2.5-0.9,4.9-1.3,7.4c-0.4,2.4-0.7,4.8-1.1,7.1
		c-0.2,1.4-0.3,2.8-0.5,4.2c-0.3,2.1-0.7,4.1-1.3,6.2c-1.6-5.8-2-11.7-3.1-17.6c-1.1-5.9-1.6-11.8-3-18.2c-1.5,2.5-2.8,4.4-3.4,6.7
		c-0.6,2.2-1.1,4.4-2,6.5c-0.6,1.5-1.7,2.9-2.8,4.1c-1.3,1.5-2.9,2.7-4.3,4.1c-2.4,2.3-3.9,5.4-4.3,8.6c-1.7-1.3-2.7-2.8-3.1-4.6
		c-0.5-2.7,0.1-5.2,1.9-7.4c0.5-0.7,1.1-1.4,1.6-2.1c1.6-2,2.6-4.3,2.6-6.8c0.1-4.2,1.3-8.1,2.5-12c0-0.1-0.1-0.3-0.1-0.6
		c-1-0.2-1.5,0.6-2.2,1.1c-7.9,5.7-15.7,11.5-23.6,17.2c-1,0.7-1.9,1.4-2.9,2.1c-0.1-0.1-0.2-0.3-0.4-0.4c7-9.6,14.1-19.1,21.5-29.2
		c-1.4,0.1-2.2,0-2.9,0.3c-2.2,0.9-4.4,1.8-6.4,3c-3.5,2.1-7.2,3.1-11.4,2.7c-2.4-0.2-4.8,0.1-7.1,0.3c-0.7,0-1.3,0.4-1.9,0.7
		c-1.1,0.5-2.1,1.1-3.1,1.6c-1.4-4.4,3.2-8.9,7.6-9.1c3.7-0.2,6.8-1.4,9.7-3.7c2.6-2.1,5.7-3.8,8.5-5.7c0.5-0.4,1.1-0.7,2.2-1.2
		c-12.3-1.9-24-3.7-35.8-5.5c0-0.2,0-0.3,0-0.5c0.6-0.2,1.2-0.4,1.8-0.5c2.9-0.5,5.9-1,8.9-1.4c2-0.3,4.1-0.3,6.1-0.6
		c2.8-0.4,5.6-1,8.4-1.4c2.2-0.4,4.3-0.6,6.5-0.9c1.4-0.2,2.7-0.5,4.1-1.1c-1.8-1.6-3.9-2.6-6.1-3.2c-2.3-0.7-4.6-1-6.8-2
		c-1.5-0.7-2.8-2-4.1-3.1c-1-0.8-1.8-1.9-2.6-2.8c-2.2-2.5-4.7-4.5-8.1-5.1c-0.5-0.1-1-0.4-1.5-0.6c1.8-2.6,5-3.7,7.9-3
		c2,0.5,3.6,1.6,5.2,2.8c1.7,1.3,3.4,2.6,5.5,3c1.7,0.3,3.4,0.4,5.1,0.7c2.4,0.4,4.8,1,7.2,1.5c0.9,0.2,1.7,0.6,2.7,0.8
		c-6.6-9.8-13.6-19.1-20.4-28.6c0.3-0.1,0.6-0.1,0.9-0.2c8.8,6.5,17.7,12.9,26.5,19.4c0.6,0.5,1.3,0.9,2.3,1.6
		c-0.9-3.4-1.6-6.5-3.4-9.1c-2.6-3.7-3.5-7.7-3.1-12.2c0.4-4.2-0.3-8.3-2.8-12.2c1.5-0.4,2.9-0.1,4.1,0.5c3.1,1.2,5,4.1,5,7.5
		c0,3.1,0.8,5.9,2.8,8.2c3,3.5,5.6,7.3,7.5,11.6c0,0.1,0.2,0.1,0.4,0.3c1.8-11.5,3.6-23,5.4-34.5c0.2,0,0.3,0,0.5,0
		c0.4,1.6,0.8,3.2,1.1,4.8c0.7,4.6,1.3,9.2,1.9,13.8c0.5,3.3,0.9,6.5,1.4,9.8c0.4,2.3,0.8,4.5,1.3,7c1.6-1.4,2.4-3.1,2.9-4.8
		c0.7-2,0.9-4.1,1.7-6c0.9-2.1,2.1-4,3.4-5.9c0.6-0.9,1.4-1.5,2.2-2.2c3.5-2.8,6.2-6.1,6.9-11.1c2,1.2,2.8,2.9,3.2,4.7
		c0.5,2.2,0.1,4.3-1.1,6.2c-0.5,0.8-1.1,1.6-1.7,2.3c-2.2,2.5-3.1,5.4-3.4,8.7c-0.3,4-1.1,8-2.6,11.9c2.1-1.1,3.9-2.5,5.8-3.9
		c1.9-1.4,3.9-2.8,5.8-4.2c1.9-1.4,3.7-2.7,5.6-4.1c1.9-1.4,3.9-2.8,5.8-4.2c1.9-1.4,3.8-2.8,6-4.5c-0.2,1.5-1,2.3-1.6,3.2
		c-6,8.2-12.1,16.5-18.2,24.7c-0.5,0.6-0.9,1.3-1.5,2.2c3.5-0.5,6.5-1.6,9.1-3.4c3.7-2.5,7.8-3.5,12.2-3c4,0.5,7.8-0.2,11.3-2.4
		c0.3,0,0.6,0.1,0.9,0.1c-0.2,3.5-1.5,6.4-4.9,7.8c-1.6,0.7-3.5,1.1-5.3,1.2c-2.6,0.2-4.8,1.1-6.7,2.7c-3.5,3-7.2,5.5-11.9,7.5
		c1.3,0.4,2.1,0.8,2.9,0.9c3,0.5,6,1,9,1.4c3.5,0.5,7,0.9,10.5,1.4c3.5,0.6,7,1.3,10.6,1.9c0.9,0.1,1.9,0,2.9,0.4
		c-0.3,0.2-0.7,0.6-1,0.6c-4.2,0.7-8.4,1.3-12.6,1.9c-3.6,0.5-7.2,1-10.7,1.5c-3.5,0.5-7,1-10.5,1.6c-0.4,0.1-0.9,0.3-1.4,0.6
		c3.2,2,6.4,3.5,10,4.2c2.7,0.5,5.3,1.7,7.3,3.8c1,1,1.9,1.9,2.8,3c2,2.4,4.5,4,7.3,5.3c0.7,0.3,1.5,0.3,2.6,0.5
		c-1.1,2-2.8,2.7-4.6,3.1c-2.5,0.5-4.9,0.2-6.9-1.6c-0.4-0.4-0.9-0.7-1.3-1c-2.9-2.6-6.3-3.5-10.1-3.6c-3.2-0.1-6.4-1-9.5-2.1
		c-0.3-0.1-0.7-0.1-1.4-0.3c0.4,0.6,0.7,0.9,0.9,1.3c6.1,8.4,12.3,16.8,18.4,25.2c0.3,0.4,0.5,0.8,0.8,1.2c-0.2,0.2-0.4,0.4-0.6,0.6
		c-5.9-4.3-11.9-8.6-17.8-13c-2.8-2.1-5.7-4.2-8.5-6.2c-0.6-0.4-1.3-0.7-2.3-1.2c0.8,3.6,2,6.5,3.8,9.1c2.4,3.7,3.3,7.6,2.9,12
		c-0.2,2.3,0,4.6,0.3,6.9c0.1,0.9,0.7,1.7,1.1,2.5c0.4,0.8,0.9,1.6,1.4,2.5c-3.6,0.8-8.2-2.1-8.9-6.2c-0.3-2-0.9-4-1.2-6
		c-0.3-1.8-1.2-3.3-2.4-4.6c-2.8-3.2-5.1-6.8-6.9-10.6c-0.2-0.3-0.3-0.5-0.5-0.8C245.2,350.3,245.1,350.6,245,350.9z M242,338.9
		c-2.2,0.2-4.3,0.3-6.9,0.5c2.6,1.3,4.7,1.7,6.9,0.4c0.4-0.2,0.8-0.4,1.1-0.7c-0.1-0.1-0.1-0.2-0.2-0.3
		C242.6,338.8,242.3,338.8,242,338.9z M221.3,307.6c0.9-0.2,1.9-0.3,2.8-0.5c3.1-0.8,6.1-0.2,9,0.7c1.2,0.3,2.2,1.2,3.3,1.8
		c0.4-2,0.4-2.2-1.1-2.7c-1.8-0.6-3.7-1-5.7-1.3c-3-0.4-5.6,0.1-8.2,1.2c-0.3,0.3-0.6,0.5-0.9,0.8
		C220.7,307.5,221,307.5,221.3,307.6z M234.6,327.6c0,0.2-0.1,0.4-0.1,0.5c0.8,0.3,1.7,0.4,2.3,0.9c1.1,0.8,2.2,0.9,3.4,0.4
		c1.1-0.4,2.1-1,3.1-1.6c0.2-0.1,0.4-0.6,0.3-0.9c-0.3-0.6-0.6-1.2-1-1.7c-0.6-0.7-1.6-1.2-1.8-2c-0.8-3.4-1.2-6.8-1.1-10.3
		c0.1-2,0.9-3.4,2.4-4.3c2.3-1.3,4.7-2.3,7.4-2c2,0.2,4,0.6,6,0.9c0.4,0.1,0.8,0,1.5,0c-0.3-0.4-0.4-0.7-0.6-0.8
		c-0.3-0.2-0.7-0.4-1-0.6c-4-1.3-8-1.3-12,0c-3.9,1.2-5.2,3.2-5.1,7.3c0.1,3.6,0.5,7.1,1.5,10.5c0.1,0.5,0.3,1.1,0.4,1.6
		c0.3,2.4-0.4,2.9-2.7,2.4C236.4,327.9,235.5,327.8,234.6,327.6z M231,334.4c3.2,4.2,12.7,3.6,15.7-0.1
		C241.5,333.2,236.3,332.6,231,334.4z M226.8,311.8c0.7,1.7-0.8,1.5-1.3,1.9c1.1,2,1.6,2.2,3.4,2c2-0.2,2.3-1.8,2.6-3.3
		c0.7-0.1,1.2-0.2,1.8-0.3c-2.6-2.9-8-2.7-9.7,0.2C224.7,312.2,225.8,312,226.8,311.8z M246.4,314.1c0.9,1.1,1.8,2.1,3.4,1.6
		c1.6-0.5,2.5-1.5,2.3-3.2c0.5,0,0.8,0,1.2-0.1c0.2,0,0.5-0.1,0.9-0.2c-3.2-2.6-8.4-2.5-9.6,0.1c1.1-0.1,2.2-0.3,3.3-0.4
		C248.6,313.8,246.6,313,246.4,314.1z"/>
	<path class="st0" d="M237.4,221.6c0,2.8,0,5.4,0,8.2c-22.5,0-44.8,0-67.3,0c0-2.7,0-5.4,0-8.2C192.5,221.6,214.9,221.6,237.4,221.6
		z"/>
	<path class="st0" d="M240,229.4c0-2.5,0-5.1,0-7.6c1.6-0.5,63.8-0.6,67.4-0.2c0,2.6,0,5.3,0,8.1c-0.5,0-1,0.1-1.4,0.1
		c-21.5,0-43,0-64.5,0c-0.3,0-0.6,0-1-0.1C240.3,229.7,240.2,229.5,240,229.4z"/>
	<path class="st0" d="M269.7,232.8c0,2.4,0,4.8,0,7.2c-0.1,0.2-0.3,0.4-0.4,0.6c-0.7,0.1-1.4,0.2-2.1,0.2c-19.9,0-39.7,0-59.6,0
		c-0.7,0-1.4-0.1-2.1-0.2c-0.1-0.2-0.3-0.4-0.4-0.6c0-2.4,0-4.8,0-7.2c0.1-0.1,0.3-0.3,0.4-0.4c0.6,0,1.3-0.1,1.9-0.1
		c20,0,40,0,60,0c0.6,0,1.3,0.1,1.9,0.1C269.4,232.5,269.6,232.6,269.7,232.8z"/>
	<path class="st8" d="M261.7,191.7c2,0,3.7,0,5.7,0c0,1.8,0,3.4,0,5.1c0,2.1,0.2,2.3,2.4,2.3c1.7,0,3.4,0,5,0c1.6-0.1,1.9-0.3,1.9-2
		c0-1.7,0-3.5,0-5.4c2,0,3.8,0,5.8,0c0.1,0.6,0.2,1.2,0.2,1.8c0,4.7,0,9.4,0,14.1c0,1.2-0.3,2.1-1.1,3c-2.1,2.3-4,4.7-6.1,7.1
		c-1.4,1.6-5.2,1.7-6.6,0.1c-2.2-2.5-4.4-5.1-6.5-7.7c-0.4-0.5-0.7-1.3-0.8-1.9C261.7,202.8,261.7,197.4,261.7,191.7z"/>
	<path class="st8" d="M295.6,191.7c1.7,0,3.5,0,5.6,0c0,1.7,0,3.4,0.1,5.1c0,2,0.2,2.2,2.2,2.2c1.7,0,3.4,0,5,0
		c1.9,0,2.1-0.2,2.1-2.1c0-1.7,0-3.5,0-5.3c1.9,0,3.5,0,5.3,0c0.1,0.6,0.2,1.1,0.2,1.6c0,4.8,0,9.6,0,14.4c0,1-0.2,1.8-0.8,2.6
		c-2.1,2.5-4.2,5-6.3,7.5c-0.6,0.8-1.3,0.9-2.2,1c-2.4,0.3-4-0.5-5.4-2.5c-1.5-2.1-3.4-4-5.1-6.1c-0.5-0.6-0.9-1.4-0.9-2.1
		c-0.1-5.3,0-10.7,0-16C295.4,192.1,295.5,192,295.6,191.7z"/>
	<path class="st8" d="M228.3,191.7c1.7,0,3.4,0,5.4,0c0,1.4,0,2.7,0.1,4.1c0,3.3,0,3.3,3.4,3.3c1.4,0,2.7,0,4.1,0c1.7-0.1,2-0.3,2-2
		c0-1.7,0-3.5,0-5.4c2,0,3.8,0,5.7,0c0.1,0.6,0.2,1.2,0.2,1.8c0,4.7,0,9.4,0,14.1c0,1.2-0.3,2.1-1.1,3c-2,2.3-4,4.6-5.9,6.9
		c-0.8,1-1.6,1.3-2.8,1.4c-2.2,0.2-3.7-0.5-5-2.3c-1.5-2.1-3.4-4-5.1-6.1c-0.5-0.7-1-1.7-1.1-2.5c-0.1-5.1-0.1-10.2,0-15.3
		C228.2,192.4,228.3,192.1,228.3,191.7z"/>
	<path class="st8" d="M194.9,191.7c1.7,0,3.4,0,5.3,0c0,1.8,0,3.6,0,5.3c0,1.8,0.3,2.1,2.1,2.1c1.8,0,3.5,0,5.3,0
		c1.7,0,2-0.4,2.1-2.2c0-1.7,0-3.3,0-5.2c1.9,0,3.7,0,5.7,0c0.1,0.4,0.2,0.8,0.2,1.3c0,5,0,9.9,0,14.9c0,1-0.2,1.8-0.9,2.6
		c-2.1,2.4-4.2,4.8-6.2,7.3c-0.7,0.8-1.4,1-2.4,1.1c-2.3,0.2-3.9-0.4-5.3-2.4c-1.5-2.2-3.4-4-5.1-6.1c-0.5-0.6-1-1.5-1-2.3
		c-0.1-5.3,0-10.6,0-15.8C194.7,192.2,194.8,192,194.9,191.7z"/>
	<path class="st8" d="M176.3,191.7c1.9,0,3.6,0,5.4,0c0.1,0.5,0.2,1,0.2,1.5c0,4.9,0,9.8,0,14.6c0,1-0.2,1.8-0.9,2.6
		c-2.1,2.4-4.1,4.9-6.2,7.3c-1.5,1.7-5.2,1.7-6.7-0.1c-2-2.4-4-4.8-6-7.2c-0.5-0.6-0.9-1.4-0.9-2.1c-0.1-5.4,0-10.7,0-16.1
		c0-0.1,0.1-0.3,0.2-0.6c1.7,0,3.4,0,5.5,0c0,1.6,0.1,3.2,0.1,4.9c0,2.3,0.2,2.5,2.4,2.5c1.5,0,3,0,4.6,0c0.7,0,1.4-0.2,2.3-0.3
		C176.3,196.4,176.3,194.1,176.3,191.7z"/>
	<path class="st8" d="M307.4,232.4c0,2.7,0,5.3,0,8.1c-11.7,0-23.3,0-35.1,0c0-2.6,0-5.3,0-8.1C284,232.4,295.7,232.4,307.4,232.4z"
		/>
	<path class="st0" d="M170,240c0-2.4,0-4.8,0-7.2c0.1-0.1,0.3-0.3,0.4-0.4c5.3,0,10.5-0.1,15.8-0.1c5.3,0,10.7,0,16.2,0
		c0,2.8,0,5.4,0,8.3c-0.4,0.1-0.7,0.1-1.1,0.1c-10,0-20,0-29.9,0c-0.3,0-0.6-0.1-0.9-0.1C170.3,240.3,170.1,240.1,170,240z"/>
	<path class="st7" d="M300.5,218.9c-7.8,0-15.1,0-22.8,0c1.1-1.3,2-2.4,2.9-3.4c1.4-1.6,2.4-3.7,4.2-4.5c1.8-0.8,4.2-0.2,6.4-0.4
		c1.8-0.2,3,0.4,4,1.8C296.6,214.5,298.4,216.5,300.5,218.9z"/>
	<path class="st7" d="M177,218.7c2.2-2.5,4.1-4.8,6.1-7.1c0.6-0.7,1.1-1,2-1c2.2,0,4.3,0,6.5,0c0.6,0,1.3,0.2,1.7,0.6
		c2.1,2.4,4.1,4.8,6.2,7.3C197.7,219.1,180.5,219.2,177,218.7z"/>
	<path class="st7" d="M266.9,218.9c-7.8,0-15.1,0-22.5,0c0.3-0.5,0.6-1,0.9-1.4c1.6-2,3.3-3.9,5-5.9c0.6-0.7,1.3-1.1,2.2-1.1
		c2.1,0.1,4.2,0,6.2,0c0.6,0,1.3,0.2,1.7,0.6C262.4,213.6,264.5,216.1,266.9,218.9z"/>
	<path class="st7" d="M210.5,218.8c2.3-2.7,4.3-5.2,6.5-7.5c0.4-0.4,1.1-0.7,1.7-0.7c2.2-0.1,4.5-0.1,6.7,0c0.5,0,1.1,0.3,1.4,0.6
		c2.1,2.4,4.1,4.8,6.2,7.3C231.2,219.1,216.5,219.3,210.5,218.8z"/>
	<path class="st9" d="M285.1,365.1c0.4,0.5,0.8,1,1.2,1.5c-0.1,0.1-0.3,0.2-0.4,0.4c-0.4-0.4-0.9-0.9-1.3-1.3
		C284.8,365.5,284.9,365.3,285.1,365.1z"/>
	<path class="st10" d="M193,366.5c-0.3,0.3-0.6,0.5-0.9,0.8c-0.1-0.1-0.2-0.2-0.2-0.3c0.3-0.3,0.5-0.6,0.8-0.9
		C192.8,366.2,192.9,366.3,193,366.5z"/>
	<path class="st11" d="M194.1,273.9c-0.3,0.1-0.6,0.1-0.9,0.2c-0.2-0.3-0.4-0.7-0.7-1l0.1-0.1C193.1,273.3,193.6,273.6,194.1,273.9z
		"/>
	<path class="st12" d="M245,350.9c0.1-0.3,0.2-0.6,0.3-0.9c0.2,0.3,0.3,0.5,0.5,0.8C245.5,350.8,245.2,350.8,245,350.9z"/>
	<path class="st9" d="M298,294.7c-0.3,0-0.6-0.1-0.9-0.1c0.3-0.1,0.6-0.3,0.8-0.4C297.9,294.3,297.9,294.5,298,294.7z"/>
	<path class="st13" d="M240,229.4c0.2,0.1,0.3,0.3,0.5,0.4C240.3,229.7,240.2,229.5,240,229.4z"/>
	<path class="st14" d="M170.4,232.4c-0.1,0.1-0.3,0.3-0.4,0.4C170.2,232.6,170.3,232.5,170.4,232.4z"/>
	<path class="st14" d="M205.5,232.4c-0.1,0.1-0.3,0.3-0.4,0.4C205.2,232.6,205.3,232.5,205.5,232.4z"/>
	<path class="st11" d="M192.5,273.1c-0.1-0.1-0.2-0.2-0.3-0.3c0.1,0,0.3,0.1,0.4,0.1C192.6,273,192.5,273.1,192.5,273.1z"/>
	<path class="st14" d="M269.3,240.5c0.1-0.2,0.3-0.4,0.4-0.6C269.6,240.1,269.4,240.3,269.3,240.5z"/>
	<path class="st14" d="M205,240c0.1,0.2,0.3,0.4,0.4,0.6C205.3,240.3,205.2,240.1,205,240z"/>
	<path class="st7" d="M285.1,365.1c-0.2,0.2-0.4,0.4-0.6,0.6c-0.1,0-0.2-0.1-0.2-0.2c0.2-0.2,0.4-0.4,0.6-0.6
		C285.1,364.9,285.1,365,285.1,365.1z"/>
	<path class="st14" d="M170,240c0.1,0.2,0.3,0.4,0.4,0.6C170.3,240.3,170.1,240.1,170,240z"/>
	<path class="st14" d="M269.7,232.8c-0.1-0.1-0.3-0.3-0.4-0.4C269.4,232.5,269.6,232.6,269.7,232.8z"/>
	<path class="st8" d="M765,286c4.2,0,8.3-0.2,12.5,0c2.5,0.1,5,0.5,7.3,1.6c3.1,1.5,5.4,3.8,6.5,7c1.6,4.5,2.2,9.2,1.6,14
		c-0.3,2.2-0.6,4.4-1.3,6.5c-2,6.1-6.4,9.7-12.8,10.3c-4.7,0.5-9.4,0.3-14.2,0.4c-0.1-0.9-0.1-1.4-0.1-2c0-12.1,0-24.3,0-36.4
		c0-0.3,0-0.6,0.1-1C764.7,286.3,764.8,286.2,765,286z"/>
	<path class="st13" d="M765,286c-0.1,0.2-0.3,0.3-0.4,0.5C764.7,286.3,764.8,286.2,765,286z"/>
	<path class="st8" d="M445.9,326.9c-7.5,0-12.1-3.1-15.3-8.4c-2.7-4.6-3.2-9.6-3-14.8c0.2-4,1.4-7.8,3.4-11.2
		c4.2-7,13.2-9.3,20.3-6.6c4.9,1.9,7.9,5.2,9.8,10c2.7,6.9,2.5,13.9-0.2,20.7C458.6,322.5,453.1,327.2,445.9,326.9z"/>
	<path class="st7" d="M584.6,286.2c3,8.3,5.7,16,8.5,23.9c-5.6,0-11.2,0-17.1,0C578.7,302.1,581.7,294.5,584.6,286.2z"/>
	<path class="st7" d="M738.1,310.1c-5.7,0-11.2,0-16.9,0c0.1-0.6,0-1.2,0.2-1.7c2.6-7.2,5.3-14.4,8.2-22.1
		C732.5,294.5,735.2,302.2,738.1,310.1z"/>
	<path class="st15" d="M234.6,327.6c0.9,0.1,1.9,0.2,2.8,0.5c2.3,0.5,2.9-0.1,2.7-2.4c-0.1-0.6-0.2-1.1-0.4-1.6
		c-1-3.4-1.4-7-1.5-10.5c-0.1-4.1,1.2-6.1,5.1-7.3c4-1.2,8-1.3,12,0c0.4,0.1,0.7,0.3,1,0.6c0.2,0.1,0.3,0.4,0.6,0.8
		c-0.6,0-1,0.1-1.5,0c-2-0.3-4-0.7-6-0.9c-2.7-0.3-5.1,0.7-7.4,2c-1.6,0.9-2.4,2.3-2.4,4.3c-0.1,3.5,0.3,7,1.1,10.3
		c0.2,0.8,1.2,1.3,1.8,2c0.4,0.5,0.8,1.1,1,1.7c0.1,0.2-0.1,0.7-0.3,0.9c-1,0.6-2,1.2-3.1,1.6c-1.1,0.5-2.3,0.4-3.4-0.4
		c-0.6-0.5-1.5-0.6-2.3-0.9C234.5,328,234.5,327.8,234.6,327.6z"/>
	<path class="st16" d="M231,334.4c5.2-1.8,10.4-1.2,15.7-0.1C243.7,338,234.2,338.6,231,334.4z"/>
	<path class="st16" d="M226.8,311.8c-1.1,0.2-2.1,0.4-3.2,0.6c1.7-2.9,7.1-3.1,9.7-0.2c-0.6,0.1-1.1,0.2-1.8,0.3
		c-0.2,1.4-0.5,3.1-2.6,3.3c-1.8,0.2-2.3,0-3.4-2C226.1,313.3,227.5,313.5,226.8,311.8z"/>
	<path class="st16" d="M246.4,314.1c0.2-1,2.2-0.3,1.5-2.2c-1.1,0.1-2.2,0.3-3.3,0.4c1.1-2.6,6.3-2.8,9.6-0.1
		c-0.4,0.1-0.6,0.2-0.9,0.2c-0.3,0-0.6,0-1.2,0.1c0.2,1.8-0.7,2.7-2.3,3.2C248.2,316.2,247.3,315.2,246.4,314.1z"/>
	<path class="st15" d="M221.3,306.7c2.6-1,5.2-1.6,8.2-1.2c2,0.3,3.8,0.6,5.7,1.3c1.5,0.5,1.6,0.7,1.1,2.7c-1.1-0.6-2.1-1.5-3.3-1.8
		c-2.9-0.9-5.9-1.4-9-0.7c-0.9,0.2-1.9,0.4-2.8,0.5C221.3,307.3,221.3,307,221.3,306.7z"/>
	<path class="st16" d="M241.9,339.8c-2.2,1.3-4.3,1-6.9-0.4c2.6-0.2,4.7-0.4,6.9-0.5C242,339.2,242,339.5,241.9,339.8z"/>
	<path class="st12" d="M241.9,339.8c0-0.3,0-0.6,0-0.9c0.3,0,0.6-0.1,1-0.1c0.1,0.1,0.1,0.2,0.2,0.3
		C242.7,339.3,242.3,339.6,241.9,339.8z"/>
	<path class="st17" d="M221.3,306.7c0,0.3,0,0.6,0,0.9c-0.3,0-0.5-0.1-0.8-0.1C220.7,307.2,221,306.9,221.3,306.7z"/>
</g>
</svg>
