<?xml version="1.0" encoding="utf-8"?>
<!-- Generator: Adobe Illustrator 28.0.0, SVG Export Plug-In . SVG Version: 6.00 Build 0)  -->
<svg version="1.1" id="Lager_1" xmlns="http://www.w3.org/2000/svg" xmlns:xlink="http://www.w3.org/1999/xlink" x="0px" y="0px"
	 viewBox="0 0 376.7 55.9" style="enable-background:new 0 0 376.7 55.9;" xml:space="preserve">
<style type="text/css">
	.st0{enable-background:new    ;}
</style>
<g class="st0">
	<path d="M57.9,20.7h10.7c9.4,0,11.2,1.7,11.2,8.8s-1.9,8.8-11.2,8.8H57.9V20.7z M68.6,34.4c6,0,6.6-0.5,6.6-5s-0.7-5-6.6-5h-6.1v10
		H68.6z"/>
	<path d="M83.1,20.7h18.6v3.8h-14v3.1H101v3.6H87.7v3.4H102v3.8H83.1V20.7z"/>
	<path d="M106.2,37.3c-1.2-0.8-1.6-2-1.6-4.2v-0.5h4.6v0.1c0,1.1,0.2,1.5,0.8,1.8c0.6,0.3,2,0.5,5.2,0.5c3.6,0,4.7-0.2,5.2-0.4
		c0.6-0.3,0.8-0.6,0.8-1.5c0-0.8-0.2-1.2-0.7-1.5s-1.7-0.3-7.4-0.5c-3.6-0.1-5.5-0.4-6.6-1.1c-1.2-0.8-1.7-2-1.7-4.3
		s0.7-3.5,1.9-4.3c1.4-0.8,3.7-1.2,8.3-1.2c4.1,0,7,0.3,8.5,1.3c1.3,0.8,1.5,2.2,1.5,4.1V26h-4.6l0,0c0-0.8-0.1-1.3-0.7-1.6
		c-0.7-0.3-1.9-0.4-4.8-0.4c-3.2,0-4.3,0.1-4.8,0.4c-0.6,0.3-0.7,0.7-0.7,1.4c0,0.8,0.3,1.2,0.7,1.4c0.5,0.2,1.2,0.3,5.5,0.4
		c4.9,0.1,7.2,0.3,8.5,1.2c1.3,0.8,1.7,2.2,1.7,4.3c0,2.3-0.6,3.6-1.8,4.4s-3.4,1.3-8.8,1.3C109.6,38.6,107.6,38.3,106.2,37.3z"/>
	<path d="M128.7,20.7h4.6v17.6h-4.6V20.7z"/>
	<path d="M136.5,29.5c0-7.4,2.1-9.1,11.5-9.1c8.3,0,10.5,1.2,10.5,5.8v0.3h-4.4l0,0c0-1.8-0.8-2.2-6.3-2.2c-6.1,0-6.7,0.7-6.7,5.3
		c0,4.6,0.6,5.3,6.7,5.3c6.2,0,6.5-0.6,6.5-2.6V32h-7.4v-3.6h11.7v3.9c0,4.3-0.9,6.4-10.9,6.4C138.6,38.6,136.5,36.9,136.5,29.5z"/>
	<path d="M162,20.7h6.7L179.8,34l0,0V20.7h4.5v17.6h-6.6l-11.2-13.4l0,0v13.4H162V20.7z"/>
	<path d="M188,20.7h13.4c5.4,0,7,1.2,7,4.6c0,2.3-0.8,3.3-2.8,3.9v0.1c2.5,0.5,3.4,1.7,3.4,4.2c0,3.5-1.8,4.8-7.5,4.8H188V20.7z
		 M201.5,27.6c1.9,0,2.4-0.3,2.4-1.7c0-1.4-0.5-1.7-2.4-1.7h-8.9v3.3L201.5,27.6L201.5,27.6z M201.5,34.7c2.4,0,2.9-0.4,2.9-1.9
		s-0.6-1.8-2.9-1.8h-8.9v3.7C192.6,34.7,201.5,34.7,201.5,34.7z"/>
	<path d="M218.7,32.1l-9.5-11.5h5.5l6.5,7.9l0,0l6.5-7.9h5.2l-9.5,11.5v6.1h-4.6L218.7,32.1L218.7,32.1z"/>
	<path d="M234.8,37.3c-1.2-0.8-1.6-2-1.6-4.2v-0.5h4.6v0.1c0,1.1,0.2,1.5,0.8,1.8s2,0.5,5.2,0.5c3.6,0,4.7-0.2,5.2-0.4
		c0.6-0.3,0.8-0.6,0.8-1.5c0-0.8-0.2-1.2-0.7-1.5s-1.7-0.3-7.4-0.5c-3.6-0.1-5.5-0.4-6.6-1.1c-1.2-0.8-1.7-2-1.7-4.3
		s0.7-3.5,1.9-4.3c1.4-0.8,3.7-1.2,8.3-1.2c4.1,0,7,0.3,8.5,1.3c1.3,0.8,1.5,2.2,1.5,4.1V26H249l0,0c0-0.8-0.1-1.3-0.7-1.6
		c-0.7-0.3-1.9-0.4-4.8-0.4c-3.2,0-4.3,0.1-4.8,0.4c-0.6,0.3-0.7,0.7-0.7,1.4c0,0.8,0.3,1.2,0.7,1.4c0.5,0.2,1.2,0.3,5.5,0.4
		c4.9,0.1,7.2,0.3,8.5,1.2c1.3,0.8,1.7,2.2,1.7,4.3c0,2.3-0.6,3.6-1.8,4.4s-3.4,1.3-8.8,1.3C238.1,38.6,236.2,38.3,234.8,37.3z"/>
	<path d="M264.2,20.7h5.9l9.5,17.6h-5.4l-1.6-3.1h-11.2l-1.6,3.1h-5.1L264.2,20.7z M270.7,31.3l-3.6-7l-3.6,7H270.7z"/>
	<path d="M281.5,20.7h6.7L299.3,34l0,0V20.7h4.5v17.6h-6.6L286,24.9l0,0v13.4h-4.5L281.5,20.7L281.5,20.7z"/>
	<path d="M307.5,20.7h4.6v17.6h-4.6V20.7z"/>
	<path d="M323.5,20.7h5.9l9.5,17.6h-5.4l-1.6-3.1h-11.2l-1.6,3.1H314L323.5,20.7z M329.9,31.3l-3.6-7l-3.6,7H329.9z"/>
</g>
<g class="st0">
	<path d="M49.3,31.9h4v3.8h-4V31.9z M49.4,24.3h4v3.8h-4V24.3z"/>
</g>
</svg>
